<?xml version="1.0" encoding="UTF-8" standalone="no"?>
<svg
   width="64"
   height="64"
   viewBox="0 0 64 64"
   version="1.1"
   id="svg3"
   sodipodi:docname="FG-favicon-64x64.svg"
   inkscape:version="1.3 (0e150ed6c4, 2023-07-21)"
   inkscape:export-filename="..\..\..\Projects\OSS\public-assets\logos\favicon.png"
   inkscape:export-xdpi="96"
   inkscape:export-ydpi="96"
   xmlns:inkscape="http://www.inkscape.org/namespaces/inkscape"
   xmlns:sodipodi="http://sodipodi.sourceforge.net/DTD/sodipodi-0.dtd"
   xmlns="http://www.w3.org/2000/svg"
   xmlns:svg="http://www.w3.org/2000/svg">
  <defs
     id="defs3" />
  <sodipodi:namedview
     id="namedview3"
     pagecolor="#505050"
     bordercolor="#ffffff"
     borderopacity="1"
     inkscape:showpageshadow="0"
     inkscape:pageopacity="0"
     inkscape:pagecheckerboard="1"
     inkscape:deskcolor="#d1d1d1"
     inkscape:zoom="18.903226"
     inkscape:cx="31.978669"
     inkscape:cy="32.005119"
     inkscape:window-width="1939"
     inkscape:window-height="1368"
     inkscape:window-x="742"
     inkscape:window-y="0"
     inkscape:window-maximized="0"
     inkscape:current-layer="svg3" />
  <g
     id="g24"
     transform="matrix(1.9424776,0,0,1.9424776,1.1152116,0.42749332)">
    <path
       style="fill:#5b7e90;fill-opacity:1;fill-rule:evenodd"
       d="M 5.3105875,10.233731 H 2.8605876 V 6.9427302 h 2.4499999 v -2.134 c 0,-3.3949999 1.925,-4.51399995 5.0410015,-4.51399995 0.875,0 1.715,0.033 2.59,0.103 V 3.8277303 c -0.315,-0.033 -0.631,-0.033 -0.946,-0.033 -1.365,0 -1.854,0.418 -1.854,1.5039999 v 1.644 h 2.8 v 3.2910008 h -2.8 V 25.772729 H 5.3105875 V 10.233731"
       id="path1" />
    <path
       id="path2"
       style="fill:#bbd236;fill-opacity:1;fill-rule:evenodd"
       d="m 22.884801,24.022729 c 2.483996,0 3.954992,-1.82 3.954992,-7.769 0,-5.915999 -1.470996,-7.7359987 -3.954992,-7.7359987 -2.484996,0 -3.955992,1.8199997 -3.955992,7.7359987 0,5.949 1.470996,7.769 3.955992,7.769 z M 27.048793,7.1887302 h 1.889996 V 24.442729 c 0,5.145 -1.889996,7.770001 -6.087988,7.770001 -3.606992,0 -5.495992,-1.891 -5.530992,-4.549 h 2.099996 c 0,1.75 1.644,2.799 3.499996,2.799 2.555992,0 3.919992,-1.783 3.919992,-5.074 v -2.942001 h -0.071 c -0.664,2.278 -2.413996,3.326 -4.339992,3.326 -2.868996,0 -5.739992,-1.89 -5.739992,-9.31 0,-6.403999 1.856,-9.6949987 5.950992,-9.6949987 2.029996,0 3.673992,1.191 4.339992,3.2909997 h 0.069 z" />
  </g>
</svg>
