<?xml version="1.0" encoding="UTF-8" standalone="no"?>
<svg
   width="64"
   height="64"
   viewBox="0 0 63.999999 63.999999"
   version="1.1"
   id="svg3"
   sodipodi:docname="FG-favicon-warn-64x64.svg"
   inkscape:version="1.3.1 (91b66b0783, 2023-11-16)"
   inkscape:export-filename="FG-favicon-warn-64x64.png"
   inkscape:export-xdpi="96"
   inkscape:export-ydpi="96"
   xmlns:inkscape="http://www.inkscape.org/namespaces/inkscape"
   xmlns:sodipodi="http://sodipodi.sourceforge.net/DTD/sodipodi-0.dtd"
   xmlns="http://www.w3.org/2000/svg"
   xmlns:svg="http://www.w3.org/2000/svg">
  <defs
     id="defs3" />
  <sodipodi:namedview
     id="namedview3"
     pagecolor="#505050"
     bordercolor="#ffffff"
     borderopacity="1"
     inkscape:showpageshadow="0"
     inkscape:pageopacity="0"
     inkscape:pagecheckerboard="1"
     inkscape:deskcolor="#d1d1d1"
     inkscape:zoom="13.259666"
     inkscape:cx="32.01438"
     inkscape:cy="31.976672"
     inkscape:window-width="1939"
     inkscape:window-height="1368"
     inkscape:window-x="742"
     inkscape:window-y="0"
     inkscape:window-maximized="0"
     inkscape:current-layer="svg3"
     showgrid="false" />
  <g
     id="g1"
     transform="matrix(0.992,0,0,0.992,0.25599995,0.25600014)">
    <path
       style="fill:#ff0000;fill-opacity:1;fill-rule:evenodd;stroke:#000000;stroke-width:0.5;stroke-linecap:square;stroke-dasharray:none"
       d="M 11.430909,20.306286 H 6.6718391 V 13.913591 H 11.430909 V 9.7683435 c 0,-6.5947113 3.739269,-8.76834378 9.792032,-8.76834378 1.699668,0 3.33135,0.0641018 5.031017,0.20007518 v 6.6626982 c -0.61188,-0.064102 -1.225703,-0.064102 -1.837583,-0.064102 -2.651482,0 -3.601354,0.8119557 -3.601354,2.9214869 v 3.193433 h 5.438937 v 6.392695 H 20.815021 V 50.490443 H 11.430909 V 20.306286"
       id="path1" />
    <path
       id="path2"
       style="fill:#ff0000;fill-opacity:0.8;fill-rule:evenodd;stroke:#000000;stroke-width:0.5;stroke-linecap:square;stroke-dasharray:none"
       d="m 45.568426,47.091106 c 4.825105,0 7.682483,-3.53531 7.682483,-15.091109 0,-11.491695 -2.857378,-15.027004 -7.682483,-15.027004 -4.827051,0 -7.684426,3.535309 -7.684426,15.027004 0,11.555799 2.857375,15.091109 7.684426,15.091109 z M 53.656887,14.39144 h 3.671274 V 47.906946 C 57.328161,57.900994 53.656887,63 45.50238,63 38.49588,63 34.826539,59.326775 34.758552,54.163668 h 4.079196 c 0,3.399337 3.193433,5.436996 6.798663,5.436996 4.964957,0 7.614498,-3.463437 7.614498,-9.856133 v -5.714769 h -0.137917 c -1.289806,4.424964 -4.689132,6.460681 -8.430337,6.460681 -5.57296,0 -11.149807,-3.671285 -11.149807,-18.084468 0,-12.439624 3.605239,-18.832318 11.559671,-18.832318 3.943221,0 7.136646,2.313491 8.430337,6.392694 h 0.134031 z" />
  </g>
</svg>
