<?xml version="1.0" encoding="UTF-8" standalone="no"?>
<svg
   width="1125"
   height="300"
   viewBox="0 0 1142.8404 304.75745"
   version="1.1"
   id="svg3"
   sodipodi:docname="FG-logo-warn-010.svg"
   inkscape:version="1.3 (0e150ed6c4, 2023-07-21)"
   inkscape:export-filename="..\..\..\Projects\OSS\public-assets\logos\FG-PRD-001.png"
   inkscape:export-xdpi="96"
   inkscape:export-ydpi="96"
   xmlns:inkscape="http://www.inkscape.org/namespaces/inkscape"
   xmlns:sodipodi="http://sodipodi.sourceforge.net/DTD/sodipodi-0.dtd"
   xmlns="http://www.w3.org/2000/svg"
   xmlns:svg="http://www.w3.org/2000/svg">
  <defs
     id="defs3" />
  <sodipodi:namedview
     id="namedview3"
     pagecolor="#505050"
     bordercolor="#ffffff"
     borderopacity="1"
     inkscape:showpageshadow="0"
     inkscape:pageopacity="0"
     inkscape:pagecheckerboard="1"
     inkscape:deskcolor="#d1d1d1"
     inkscape:zoom="1.0459742"
     inkscape:cx="561.67732"
     inkscape:cy="149.14326"
     inkscape:window-width="1939"
     inkscape:window-height="1368"
     inkscape:window-x="742"
     inkscape:window-y="0"
     inkscape:window-maximized="0"
     inkscape:current-layer="svg3" />
  <path
     fill="#5b7e90"
     d="M 17.578831,68.938189 H 0.83572682 V 46.447758 H 17.578831 V 31.864173 c 0,-23.2011586 13.155296,-30.8483151 34.449791,-30.8483151 5.97968,0 11.720172,0.2255193 17.699852,0.7038937 V 25.160097 c -2.152684,-0.225519 -4.312203,-0.225519 -6.464888,-0.225519 -9.328301,0 -12.670088,2.856578 -12.670088,10.278216 V 46.447758 H 69.728474 V 68.938189 H 50.593498 V 175.13047 H 17.578831 V 68.938189 M 136.51637,110.79595 c -4.55822,3.35545 -10.05953,5.5013 -14.11887,6.46489 -13.39449,2.87024 -18.65661,9.3283 -18.65661,20.80928 0,9.79301 3.58781,17.93904 12.43774,17.93904 8.85676,0 20.33774,-5.75416 20.33774,-19.8662 z M 76.2412,85.92048 v -3.109434 c 0,-29.659212 20.317244,-39.711909 45.19271,-39.711909 39.23354,0 46.64834,16.271564 46.64834,39.465888 V 150.255 c 0,11.95936 0.71756,17.4675 4.06618,24.87547 h -31.56587 c -2.16636,-4.05251 -3.11627,-9.08911 -4.06619,-13.38765 H 136.038 c -7.66766,13.38765 -16.98229,16.74311 -32.76865,16.74311 -22.968801,0 -31.108,-19.62019 -31.108,-36.828 0,-24.17157 9.806675,-33.97141 32.54313,-40.19028 l 18.64976,-5.029767 c 9.81351,-2.617392 13.16213,-6.451221 13.16213,-15.055126 0,-9.813509 -4.3122,-15.793189 -15.30798,-15.793189 -10.05269,0 -15.31481,6.704075 -15.31481,16.73627 v 3.594642 z m 177.21038,6.936429 c 0,-12.437735 -2.37137,-25.839052 -14.81594,-25.839052 -16.27156,0 -18.89579,14.3649 -18.89579,44.010443 0,31.81873 2.86341,44.98086 17.69986,44.98086 10.99577,0 16.01187,-9.33513 16.01187,-30.14442 h 31.57954 c 0,33.73223 -14.11204,52.62119 -49.03337,52.62119 -33.00784,0 -49.27257,-16.01871 -49.27257,-67.68998 0,-52.853539 21.76604,-67.696813 52.14281,-67.696813 30.37678,0 46.16313,19.380997 46.16313,49.757772 H 253.45158 M 309.43505,9.6265971 h 33.0215 V 46.447758 H 361.5847 V 68.938189 H 342.45655 V 138.5485 c 0,10.03903 2.14585,14.10521 11.71334,14.10521 2.61739,0 5.26212,-0.25286 7.41481,-0.47838 v 22.95514 c -7.16879,0.7244 -13.8797,1.44196 -21.52685,1.44196 -25.83222,0 -30.6228,-7.90001 -30.6228,-33.96458 V 68.938189 h -16.7431 V 46.447758 h 16.7431 V 9.6265971 M 419.46116,156.00916 c 13.39449,0 17.70669,-13.16213 17.70669,-45.21321 0,-32.044252 -4.3122,-45.206382 -17.70669,-45.206382 -16.25789,0 -17.69301,18.888955 -17.69301,45.206382 0,26.31059 1.43512,45.21321 17.69301,45.21321 z m 0,-112.910023 c 39.71191,-0.703894 50.71452,22.968805 50.71452,67.696813 0,44.01044 -12.92294,67.68998 -50.71452,67.68998 -39.6914,0.71756 -50.71452,-22.96197 -50.71452,-67.68998 0,-44.003612 12.92295,-67.696813 50.71452,-67.696813 z m 68.40754,3.348621 h 31.56588 v 17.221478 h 0.48521 c 6.69724,-12.437734 16.03237,-20.570099 29.65921,-20.570099 1.92033,0 4.06618,0.252855 5.97968,0.478375 v 31.57271 c -3.34862,-0.232353 -6.93643,-0.485208 -10.29188,-0.485208 -11.47415,0 -24.3971,5.97968 -24.3971,23.214826 v 77.25063 h -33.001 V 46.447758 m 103.80725,86.599432 v 4.29854 c 0,11.2418 5.97968,18.66343 17.21464,18.66343 10.0527,0 16.75677,-5.02293 16.75677,-15.31481 0,-8.37839 -5.5013,-12.21222 -11.95936,-14.58359 l -23.21482,-8.37155 c -18.16456,-6.45805 -27.4997,-17.71352 -27.4997,-35.878079 0,-21.301328 13.39449,-38.761994 47.35907,-38.761994 29.8984,0 44.01044,13.401317 44.01044,36.602476 v 5.255284 h -29.65921 c 0,-12.909275 -3.82699,-19.367329 -14.59042,-19.367329 -8.36472,0 -15.54717,4.77691 -15.54717,13.866024 0,6.225701 3.34863,11.480985 14.3444,15.068793 l 19.86621,6.704075 c 20.80928,6.94326 28.45644,17.46067 28.45644,36.84166 0,27.02816 -20.09172,40.41581 -47.83744,40.41581 -37.06718,0 -47.35223,-16.27157 -47.35223,-40.90101 v -4.53773 h 29.65238"
     id="path1"
     style="fill-rule:evenodd;stroke-width:6.83392;fill:#ff0000" />
  <path
     fill="#bbd236"
     d="m 713.64775,163.17111 c 16.97546,0 27.02816,-12.43773 27.02816,-53.09272 0,-40.429474 -10.0527,-52.867208 -27.02816,-52.867208 -16.98229,0 -27.03499,12.437734 -27.03499,52.867208 0,40.65499 10.0527,53.09272 27.03499,53.09272 z M 742.1042,48.128902 h 12.9161 V 166.04136 c 0,35.16052 -12.9161,53.09956 -41.6049,53.09956 -24.64995,0 -37.55923,-12.92295 -37.79841,-31.08751 h 14.35123 c 0,11.95936 11.23496,19.12815 23.91872,19.12815 17.4675,0 26.78897,-12.18488 26.78897,-34.67531 v -20.1054 h -0.48521 c -4.53773,15.56767 -16.49709,22.72962 -29.65922,22.72962 -19.60651,0 -39.2267,-12.91611 -39.2267,-63.62379 0,-43.764427 12.68376,-66.254858 40.66866,-66.254858 13.87286,0 25.10782,8.139199 29.65921,22.490431 h 0.47155 z m 41.6049,0 h 14.35807 V 67.98144 h 0.4647 c 5.51498,-14.112045 17.22148,-22.729618 32.05109,-22.729618 1.68114,0 3.36229,0.252855 5.02976,0.731229 v 14.351232 c -2.3987,-0.485208 -4.79058,-0.724395 -6.93643,-0.724395 -15.79319,0 -30.60912,11.480986 -30.60912,36.117267 V 175.13047 H 783.7091 V 48.128902 M 887.28399,166.04136 c 16.01871,0 28.45644,-13.86603 28.45644,-54.53468 0,-40.415806 -12.43773,-54.295498 -28.45644,-54.295498 -16.03237,0 -28.47011,13.879692 -28.47011,54.295498 0,40.66865 12.43774,54.53468 28.47011,54.53468 z m 0,-120.789538 c 27.97807,0 43.76443,22.24441 43.76443,66.254858 0,44.25646 -15.78636,66.49404 -43.76443,66.49404 -27.99173,0 -43.77809,-22.23758 -43.77809,-66.49404 0,-44.010448 15.78636,-66.254858 43.77809,-66.254858 z m 64.8129,2.87708 h 14.35123 v 89.456018 c 0,20.57009 6.93643,28.45644 22.01206,28.45644 16.25102,0 27.73202,-12.90244 27.73202,-32.52263 V 48.128902 h 14.3513 V 175.13047 h -12.9093 v -17.69302 h -0.4784 c -7.1824,14.11888 -19.60651,20.56327 -32.52945,20.56327 -19.381,0 -32.52946,-10.0322 -32.52946,-33.95092 V 48.128902 m 147.33251,9.08228 c -8.1324,0 -15.2943,4.30537 -20.0918,11.248632 -6.2052,8.849927 -8.1255,21.287661 -8.1255,43.299716 0,46.87386 13.1485,54.28183 27.7321,54.28183 14.3649,0 27.7525,-7.40797 27.7525,-54.28183 0,-46.169962 -13.3876,-54.548348 -27.2673,-54.548348 z m -42.5685,-9.08228 h 12.9093 v 18.185061 h 0.4783 c 4.5514,-11.73384 15.0688,-21.062141 31.3404,-21.062141 28.2172,0 40.4158,22.490431 40.4158,66.507708 0,43.76443 -12.6769,66.24119 -40.655,66.24119 -15.7864,0 -26.5498,-8.60391 -29.6592,-21.99156 h -0.4784 v 61.22509 h -14.3512 z"
     id="path2"
     style="fill-rule:evenodd;stroke-width:6.83392;fill:#ff0000;fill-opacity:0.80000001" />
  <path
     d="m 0.83572682,262.73805 q 0,-5.52586 2.56271998,-9.97058 2.56272,-4.48476 7.1676072,-7.00744 4.64493,-2.52268 10.531178,-2.52268 8.529052,0 13.654492,5.04536 5.12544,5.04535 5.12544,13.45428 0,9.93054 -6.687097,15.77674 -5.966333,5.24557 -14.295173,5.24557 -8.0085,0 -13.0538547,-5.36569 -5.00531248,-5.40574 -5.00531248,-14.65556 z m 7.52798998,-2.84302 q 0,8.24876 3.3635702,14.135 3.403612,5.84621 9.77037,5.84621 4.845142,0 7.808287,-3.68391 3.003187,-3.68391 3.003187,-11.17186 0,-6.04642 -1.76187,-10.45109 -1.76187,-4.44472 -4.644929,-6.44684 -2.88306,-2.04217 -6.446843,-2.04217 -3.163357,0 -5.726078,1.6017 -2.522677,1.6017 -3.723952,4.28455 -1.6417422,3.64387 -1.6417422,7.92841 z m 49.1321472,-9.69028 v 15.57653 q 0,11.2119 0.64068,12.5333 0.68072,1.32141 4.044293,1.32141 h 3.52374 v 2.32246 q -6.56697,-0.32034 -9.409988,-0.32034 l -12.65343,0.32034 v -2.32246 h 2.682848 q 3.123314,0 3.68391,-1.24132 0.760807,-1.68179 0.760807,-12.61339 v -15.57653 l -5.76612,0.4004 v -1.68179 q 2.843017,-1.40149 5.76612,-2.96315 v -5.08539 q 0,-3.88413 1.041105,-6.32672 1.081148,-2.44259 4.284548,-5.76612 4.244505,-4.44471 6.607012,-5.80616 1.561658,-0.92098 3.924165,-0.92098 1.561658,0 3.4837,0.52054 -0.120141,2.04217 -0.120141,3.28349 0,1.24132 0.120141,3.40361 l -1.001065,0.44044 q -2.362507,-2.0822 -5.405737,-2.0822 -3.36357,0 -4.8051,2.28242 -1.401488,2.28242 -1.401488,11.13181 v 5.32565 q 6.486885,-0.0403 10.611263,-0.40039 l 0.2803,0.40039 -0.64068,3.84408 -4.925227,-0.12014 q -1.801913,0 -5.325653,0.12014 z m 47.530446,0.68072 6.04642,-5.36569 q 1.08114,-0.96102 2.28242,-1.40149 2.6428,-0.88093 5.28561,-0.88093 4.28455,0 7.40787,1.76187 3.12331,1.72182 4.48476,4.5248 1.36144,2.76294 1.36144,8.68922 l -0.20024,12.61339 q 0,6.52693 0.56059,7.52799 0.76081,1.28136 2.96314,1.28136 h 2.88306 v 2.32246 q -4.28455,-0.28026 -7.40786,-0.28026 -3.04323,0 -6.52693,0.28026 0.76081,-7.80828 0.76081,-21.10239 0,-5.36569 -0.96102,-7.60807 -0.92098,-2.24238 -3.16336,-3.60383 -2.20233,-1.36145 -5.32565,-1.36145 -3.88412,0 -6.60701,1.96208 -2.68285,1.96209 -3.32353,4.3246 -0.4004,1.56166 -0.4004,8.16866 0,7.32778 0.12014,13.61446 0.0403,1.882 0.56059,2.3625 1.00107,0.92098 3.28349,0.92098 h 2.84302 v 2.32246 q -6.76719,-0.28026 -10.77144,-0.28026 -4.244503,0 -9.650243,0.28026 v -2.32246 h 2.88306 q 2.963146,0 3.44366,-1.36144 0.52054,-1.40149 0.52054,-16.65768 0,-6.84727 -0.160188,-10.7314 -0.08009,-1.28136 -0.64068,-1.76186 -0.560586,-0.4805 -3.16336,-0.4805 h -2.88306 v -2.28242 q 3.443661,-0.4004 6.166547,-1.08114 2.722894,-0.68073 6.126504,-2.08222 0.36036,-0.16018 0.68073,-0.16018 0.64068,0 0.64068,0.92098 l -0.0403,1.52161 z m 66.87098,31.07298 0.48049,-7.20764 -2.36251,2.56272 q -2.76293,3.00318 -5.64599,4.2445 -2.84301,1.20128 -7.04748,1.20128 -3.60382,0 -6.20659,-1.52162 -2.60276,-1.52162 -3.80403,-3.92416 -1.16123,-2.4426 -1.16123,-7.68816 0,-2.7229 0.12014,-6.32672 l 0.12014,-6.44684 q 0,-6.76718 -0.4004,-7.52799 -0.36035,-0.76081 -2.52268,-0.76081 h -3.56378 v -2.20234 q 5.44578,-0.48049 10.05066,-2.00212 l 3.32354,-1.24132 q 0.68072,0 0.68072,1.00106 l -0.28032,4.08434 q -0.56059,8.48901 -0.56059,15.77674 0,7.28774 0.60063,9.3299 0.60064,2.00213 2.52268,3.36358 1.92204,1.3214 4.68497,1.3214 3.72395,0 6.80723,-2.40255 3.12331,-2.40255 4.08433,-4.84515 0.52054,-1.40148 0.52054,-8.44896 0,-11.85258 -0.44045,-12.89368 -0.4004,-0.8409 -3.60382,-0.8409 h -3.16336 v -2.20234 q 4.12438,-0.48049 7.00744,-1.12118 2.88306,-0.64068 6.08646,-1.92204 0.4004,-0.20024 0.72076,-0.20024 0.68073,0 0.68073,0.76081 l -0.16019,3.72395 q -0.60063,13.69454 -0.60063,24.10558 0,5.84621 0.60063,6.6871 0.88094,1.24132 3.80404,1.24132 h 2.32246 v 2.32246 q -5.00531,-0.28026 -8.489,-0.28026 -2.60277,0 -5.20553,0.28026 z m 30.67255,-31.4734 v 15.69666 q 0,6.1265 0.4004,7.84833 0.4004,1.72183 1.6017,2.68285 1.24132,0.96102 3.12331,0.96102 1.16124,0 2.24238,-0.44045 1.1212,-0.48049 2.20234,-1.40149 l 1.16124,1.40149 -3.88413,4.60489 q -1.28136,0.44044 -2.48263,0.68072 -1.20128,0.24028 -2.32247,0.24028 -2.96314,0 -5.00531,-1.08114 -2.04217,-1.04111 -2.96314,-2.7229 -0.92098,-1.72182 -0.92098,-5.16548 l 0.12014,-7.7282 v -15.21615 q -3.08328,0 -6.36676,0.28033 v -1.72183 q 3.44366,-1.32141 6.36676,-2.76293 -0.0403,-5.72608 -0.32031,-12.41318 4.64493,-1.96208 6.6871,-3.16336 l 1.04111,0.80085 q -0.32031,3.12332 -0.68073,14.77569 4.88519,0 7.96846,-0.12014 l 3.2034,-0.16019 -0.44045,4.12438 -1.64174,-0.0403 -7.68816,0.0403 z m 27.10877,1.80192 q 1.6017,-1.52162 3.4837,-4.00426 2.24238,-2.9231 4.16442,-4.00424 1.92204,-1.08116 4.0443,-1.08116 2.20233,0 3.36356,0.52054 0.56059,0.24028 0.56059,0.76081 l -0.0403,0.4004 q -0.60063,3.24345 -0.68073,9.08965 h -1.80191 q -0.92098,-2.04217 -2.20234,-2.88306 -1.24132,-0.8409 -3.00319,-0.8409 -2.3625,0 -4.40467,1.6017 -2.00213,1.6017 -2.68285,4.48476 -0.68072,2.88306 -0.68072,11.33204 0,5.5659 0.44044,9.36994 0.16019,1.40148 0.80086,1.76187 1.52161,0.84089 4.48476,0.84089 h 2.40254 v 2.32246 q -6.1265,-0.28026 -11.61232,-0.28026 -5.32565,0 -10.53118,0.28026 v -2.32246 l 3.84408,-0.3203 q 2.04217,-0.16019 2.56272,-0.76081 0.56059,-0.60063 0.72077,-3.88413 0.28033,-5.76612 0.28033,-13.69453 0,-9.65024 -0.76081,-11.33203 -0.52054,-1.08114 -3.28349,-1.08114 h -3.36356 v -2.32247 q 3.88412,-0.44045 6.92735,-1.12119 3.04323,-0.72076 5.40573,-1.80191 0.56059,-0.28033 0.92098,-0.28033 0.44045,0 0.60064,0.24028 0.16018,0.24028 0.16018,1.08115 z m 29.15094,-26.94861 q 1.84196,0 3.16336,1.36145 1.3214,1.3214 1.3214,3.2034 0,1.882 -1.3214,3.2034 -1.3214,1.3214 -3.16336,1.3214 -1.882,0 -3.2034,-1.3214 -1.3214,-1.3214 -1.3214,-3.2034 0,-1.882 1.3214,-3.2034 1.3214,-1.36145 3.2034,-1.36145 z m 3.2034,17.73883 0.96102,0.60063 q -0.28032,3.00319 -0.36035,6.60701 -0.28033,11.69241 -0.28033,17.25832 0,5.20552 0.36036,8.88944 0.16018,1.44152 0.76081,2.00212 0.60063,0.56058 2.88306,0.84089 l 2.72289,0.36042 v 2.32246 q -5.84621,-0.28026 -10.65131,-0.28026 -4.72501,0 -9.53011,0.28026 v -2.32246 l 3.44365,-0.36042 q 2.00213,-0.16019 2.44259,-0.72076 0.4805,-0.60063 0.60064,-3.88413 0.20023,-5.08539 0.20023,-14.01487 0,-6.20659 -0.20023,-9.57016 -0.0801,-1.24131 -0.72077,-1.76187 -0.60063,-0.52054 -2.76293,-0.52054 h -3.00319 v -2.3625 q 4.88519,-0.72077 7.16761,-1.32141 2.32246,-0.60063 5.96633,-2.04217 z m 23.545,7.40786 v 15.69666 q 0,6.1265 0.4004,7.84833 0.4004,1.72183 1.6017,2.68285 1.24132,0.96102 3.12332,0.96102 1.16122,0 2.24238,-0.44045 1.12118,-0.48049 2.20233,-1.40149 l 1.16123,1.40149 -3.88412,4.60489 q -1.28136,0.44044 -2.48264,0.68072 -1.20127,0.24028 -2.32246,0.24028 -2.96314,0 -5.00531,-1.08114 -2.04217,-1.04111 -2.96315,-2.7229 -0.92098,-1.72182 -0.92098,-5.16548 l 0.12014,-7.7282 v -15.21615 q -3.08327,0 -6.36676,0.28033 v -1.72183 q 3.44366,-1.32141 6.36676,-2.76293 -0.0403,-5.72608 -0.3203,-12.41318 4.64492,-1.96208 6.68709,-3.16336 l 1.04111,0.80085 q -0.32031,3.12332 -0.68073,14.77569 4.88518,0 7.96845,-0.12014 l 3.2034,-0.16019 -0.44044,4.12438 -1.64174,-0.0403 -7.68816,0.0403 z m 23.86532,-25.14669 q 1.84196,0 3.16336,1.36145 1.3214,1.3214 1.3214,3.2034 0,1.882 -1.3214,3.2034 -1.3214,1.3214 -3.16336,1.3214 -1.882,0 -3.2034,-1.3214 -1.3214,-1.3214 -1.3214,-3.2034 0,-1.882 1.3214,-3.2034 1.3214,-1.36145 3.2034,-1.36145 z m 3.2034,17.73883 0.96102,0.60063 q -0.28032,3.00319 -0.36035,6.60701 -0.28033,11.69241 -0.28033,17.25832 0,5.20552 0.36036,8.88944 0.16018,1.44152 0.76081,2.00212 0.60063,0.56058 2.88306,0.84089 l 2.72289,0.36042 v 2.32246 q -5.84621,-0.28026 -10.65131,-0.28026 -4.72501,0 -9.53011,0.28026 v -2.32246 l 3.44365,-0.36042 q 2.00213,-0.16019 2.44259,-0.72076 0.4805,-0.60063 0.60064,-3.88413 0.20023,-5.08539 0.20023,-14.01487 0,-6.20659 -0.20023,-9.57016 -0.0801,-1.24131 -0.72077,-1.76187 -0.60063,-0.52054 -2.76293,-0.52054 h -3.00319 v -2.3625 q 4.88519,-0.72077 7.16761,-1.32141 2.32246,-0.60063 5.96633,-2.04217 z m 11.57228,19.66086 q 0,-5.52586 2.56272,-9.97058 2.56272,-4.48476 7.16762,-7.00744 4.64492,-2.52267 10.53117,-2.52267 8.52905,0 13.65449,5.04535 5.12544,5.04536 5.12544,13.45428 0,9.93054 -6.6871,15.77675 -5.96632,5.24557 -14.29516,5.24557 -8.0085,0 -13.05386,-5.3657 -5.00532,-5.40574 -5.00532,-14.65556 z m 7.528,-2.84301 q 0,8.24875 3.36356,14.135 3.40362,5.84621 9.77038,5.84621 4.84514,0 7.80828,-3.68392 3.00319,-3.6839 3.00319,-11.17185 0,-6.04642 -1.76187,-10.45109 -1.76187,-4.44472 -4.64493,-6.44684 -2.88306,-2.04218 -6.44684,-2.04218 -3.16336,0 -5.72608,1.6017 -2.52267,1.6017 -3.72395,4.28456 -1.64174,3.64386 -1.64174,7.92841 z m 48.85184,-9.00957 6.04642,-5.36569 q 1.08115,-0.96102 2.28242,-1.40149 2.64281,-0.88093 5.28562,-0.88093 4.28454,0 7.40786,1.76187 3.12332,1.72182 4.48476,4.5248 1.36144,2.76294 1.36144,8.68922 l -0.20023,12.61339 q 0,6.52693 0.56059,7.52799 0.76081,1.28136 2.96314,1.28136 h 2.88306 v 2.32246 q -4.28454,-0.28026 -7.40786,-0.28026 -3.04323,0 -6.52692,0.28026 0.7608,-7.80828 0.7608,-21.10239 0,-5.36569 -0.96102,-7.60807 -0.92098,-2.24238 -3.16336,-3.60383 -2.20233,-1.36145 -5.32565,-1.36145 -3.88412,0 -6.60701,1.96208 -2.68285,1.96209 -3.32353,4.3246 -0.4004,1.56166 -0.4004,8.16866 0,7.32778 0.12014,13.61446 0.0403,1.882 0.56059,2.3625 1.00106,0.92098 3.28348,0.92098 h 2.84302 v 2.32246 q -6.76718,-0.28026 -10.77144,-0.28026 -4.2445,0 -9.65024,0.28026 v -2.32246 h 2.88306 q 2.96315,0 3.44366,-1.36144 0.52054,-1.40149 0.52054,-16.65768 0,-6.84727 -0.16019,-10.7314 -0.0801,-1.28136 -0.64068,-1.76186 -0.56059,-0.4805 -3.16336,-0.4805 h -2.88306 v -2.28242 q 3.44365,-0.4004 6.16655,-1.08114 2.72288,-0.68073 6.1265,-2.08222 0.36035,-0.16018 0.68072,-0.16018 0.64068,0 0.64068,0.92098 l -0.0403,1.52161 z m 38.96136,3.2034 0.0403,-2.68284 -0.0403,-2.76294 4.36463,-2.48263 q 2.96315,-1.68179 5.16549,-2.32247 2.24238,-0.64068 4.76505,-0.64068 5.52587,0 8.88943,2.48264 3.40362,2.48264 4.08434,6.32672 0.4805,2.88306 0.60064,14.29517 0.0801,10.77143 0.48049,11.89262 0.4004,1.12119 2.00213,1.12119 h 3.12331 v 2.6428 q -4.56485,-0.28026 -6.36676,-0.28026 -2.24238,0 -6.00637,0.28026 l 0.0403,-3.56378 q 0,-1.72182 -0.0403,-3.4837 l -8.2888,6.32672 q -1.12119,0.8409 -2.20234,1.16124 -1.08114,0.36035 -3.00318,0.36035 -5.16549,0 -7.88838,-2.52268 -2.72289,-2.56272 -2.72289,-6.84727 0,-4.04429 1.92204,-7.04748 1.96209,-3.04322 5.52587,-4.48476 3.60382,-1.44152 16.65768,-3.76399 -0.0801,-5.0854 -2.24238,-7.60807 -2.7229,-3.16336 -7.76825,-3.16336 -1.92204,0 -3.60383,0.48049 -1.68178,0.48049 -3.12331,1.44153 -1.16123,2.84302 -2.12225,5.44578 z m 21.1024,6.36676 q -11.13182,2.40256 -14.135,4.5248 -3.0032,2.08222 -3.0032,6.48689 0,2.96315 1.72184,4.76506 1.72182,1.76187 4.44471,1.76187 3.00319,0 5.72608,-1.68178 2.76293,-1.68179 5.24557,-5.00532 l -0.0801,-8.88944 z m 30.11196,-37.96028 q -0.68073,11.73244 -0.68073,21.22252 v 20.58184 q 0,12.25301 0.52054,13.89475 0.28033,0.84089 2.64281,1.08115 l 3.40361,0.36042 v 2.32246 q -4.36463,-0.28026 -8.32884,-0.28026 -4.40467,0 -11.53224,0.28026 v -2.32246 l 3.44365,-0.28033 q 2.28243,-0.20023 2.60277,-1.16123 0.52054,-1.56166 0.52054,-14.21509 v -20.46173 l -0.0403,-7.68816 -0.12014,-5.24557 q 0,-1.96208 -0.44045,-2.40255 -0.64038,-0.64068 -2.68255,-0.64068 h -3.28349 v -2.40255 q 8.32884,-0.76081 13.29412,-3.12331 z m 60.8646,53.77707 1.08114,0.96102 -1.64174,2.56272 q -2.72289,1.48157 -5.60595,2.20234 -2.88306,0.76081 -5.88625,0.76081 -5.88624,0 -10.01062,-2.24238 -4.08434,-2.24238 -6.32672,-6.48689 -2.24238,-4.24451 -2.24238,-10.09071 0,-5.16548 1.72183,-8.96952 1.72183,-3.84408 4.8051,-6.00638 3.12331,-2.16229 7.76825,-4.2445 3.28348,-1.48157 7.32778,-1.48157 3.08326,0 5.2856,0.52054 2.24238,0.48049 4.8051,1.76187 -1.00106,5.28561 -1.08114,10.57122 h -2.52268 v -2.00213 q 0,-2.56272 -0.76081,-3.60382 -0.72077,-1.08115 -3.36357,-2.12225 -2.6428,-1.04111 -5.76612,-1.04111 -5.40574,0 -8.32884,3.32353 -2.9231,3.28348 -2.9231,9.85045 0,8.44897 4.32459,13.53437 3.88412,4.60488 10.01063,4.60488 2.40254,0 4.72501,-0.60063 2.32247,-0.60063 4.60489,-1.76187 z m 6.84726,-13.53437 q 0,-5.52586 2.56272,-9.97058 2.56272,-4.48476 7.16761,-7.00744 4.64493,-2.52267 10.53118,-2.52267 8.52905,0 13.65449,5.04535 5.12544,5.04536 5.12544,13.45428 0,9.93054 -6.6871,15.77675 -5.96633,5.24557 -14.29517,5.24557 -8.0085,0 -13.05385,-5.3657 -5.00532,-5.40574 -5.00532,-14.65556 z m 7.528,-2.84301 q 0,8.24875 3.36356,14.135 3.40362,5.84621 9.77038,5.84621 4.84514,0 7.80828,-3.68392 3.00319,-3.6839 3.00319,-11.17185 0,-6.04642 -1.76187,-10.45109 -1.76187,-4.44472 -4.64493,-6.44684 -2.88306,-2.04218 -6.44685,-2.04218 -3.16335,0 -5.72607,1.6017 -2.52268,1.6017 -3.72395,4.28456 -1.64174,3.64386 -1.64174,7.92841 z m 49.77282,-9.45003 5.3657,-4.8051 q 1.28136,-1.16124 2.72288,-1.64174 2.08222,-0.72077 4.12438,-0.72077 4.5248,0 7.2477,1.64175 2.76293,1.6017 5.04535,5.80616 l 5.16549,-4.72502 q 1.3214,-1.20128 3.24344,-1.84196 2.52268,-0.88094 4.88518,-0.88094 3.60382,0 6.52693,1.68179 2.9231,1.68179 4.32459,4.36463 1.44153,2.68285 1.44153,7.28774 l -0.12014,15.65662 q 0,5.24556 0.60063,6.20658 0.60064,0.92098 3.08328,1.04111 l 2.9231,0.12014 v 2.32246 l -1.92204,-0.12014 q -4.64493,-0.24028 -6.28667,-0.24028 -2.52268,0 -5.88625,0.36035 0.56059,-7.32777 0.56059,-17.13819 0,-8.2888 -0.72077,-10.89156 -0.72076,-2.60276 -2.76293,-4.08433 -2.04217,-1.48157 -5.12544,-1.48157 -3.48369,0 -5.96633,1.88199 -2.48264,1.84196 -3.08328,4.44472 -0.4004,1.64174 -0.4004,14.09496 0,7.32778 0.12014,8.36888 0.12014,1.00107 0.64068,1.44153 0.56059,0.4004 3.4837,0.72077 l 2.68285,0.32031 v 2.32246 q -7.08753,-0.36036 -10.41105,-0.36036 -2.64281,0 -10.25088,0.36036 v -2.32246 h 2.68284 q 2.40256,0 3.12332,-0.68073 0.72076,-0.68073 0.84089,-3.2034 0.32031,-6.56697 0.32031,-13.69453 0,-6.36676 -0.88094,-8.76931 -0.84089,-2.44259 -2.9231,-3.84408 -2.04216,-1.40149 -4.92522,-1.40149 -3.08328,0 -5.60596,1.72183 -2.52268,1.72183 -3.44365,4.16442 -0.60063,1.68179 -0.60063,9.53011 0,8.60914 0.16018,12.65344 0.0801,1.88199 0.60064,2.40254 0.52054,0.52054 3.44366,0.80086 l 2.76292,0.3203 v 2.32246 q -5.0053,-0.28026 -9.45002,-0.28026 -5.04536,0 -10.97165,0.28026 v -2.32246 h 3.04323 q 2.60276,0 3.12332,-1.36144 0.52054,-1.40149 0.52054,-15.05598 0,-10.01063 -0.12014,-11.81254 -0.12014,-1.80192 -0.68073,-2.28242 -0.56059,-0.4805 -3.40361,-0.4805 h -2.48264 v -2.20233 q 5.88625,-0.80085 10.13076,-2.20234 l 2.9231,-1.12119 q 0.72076,0 0.72076,0.96102 l -0.0801,1.44153 q -0.12014,2.20234 -0.0801,4.92523 z m 72.47692,0.88094 5.60596,-4.96528 q 2.12225,-1.882 3.60382,-2.3625 2.36251,-0.76081 5.52586,-0.76081 7.12756,0 11.53223,4.40467 4.40467,4.40468 4.40467,11.37208 0,3.48369 -1.00104,6.8873 -1.00103,3.36358 -2.44258,5.52587 -1.44154,2.12225 -3.24344,3.56378 -0.6007,0.48049 -4.88523,3.16336 l -1.60167,1.16123 q -3.04323,2.12226 -4.92523,2.76294 -1.84195,0.68072 -4.24451,0.68072 -1.88199,0 -3.9642,-0.56058 -2.08221,-0.52054 -4.36464,-1.56166 v 5.64599 q 0,8.68922 0.24028,12.25301 0.12014,1.56165 1.00106,2.24238 0.88094,0.72076 3.72396,0.72076 h 2.16229 v 2.24238 q -7.56803,-0.24028 -11.09177,-0.24028 -3.88412,0 -9.8905,0.24028 v -2.24238 h 2.9231 q 3.08328,0 3.64387,-1.3214 0.56059,-1.3214 0.56059,-14.09496 v -24.58612 q 0,-6.4068 -0.32031,-9.8905 -0.16019,-1.68178 -0.80085,-2.20233 -0.60063,-0.56059 -2.88306,-0.56059 h -3.12331 v -2.48263 q 5.56591,-0.60063 10.9316,-2.28242 l 2.44259,-0.96102 q 0.64068,0 0.64068,1.12119 l -0.12014,4.2445 z m 0,22.02337 q 2.56272,2.88306 5.12544,4.08433 2.56272,1.20128 5.52587,1.20128 6.32673,0 9.69032,-4.76506 3.36352,-4.76506 3.36352,-11.33202 0,-4.40468 -1.56162,-7.528 -1.52164,-3.16336 -4.48476,-4.92522 -2.96317,-1.80192 -6.36678,-1.80192 -2.40255,0 -4.72501,0.96102 -2.28242,0.96102 -4.00426,2.68285 -1.72182,1.68179 -2.20233,3.12331 -0.36035,1.08116 -0.36035,5.72608 z m 39.52198,-19.26045 0.041,-2.68284 -0.041,-2.76294 4.36462,-2.48263 q 2.96312,-1.68179 5.16549,-2.32247 2.24235,-0.64068 4.76502,-0.64068 5.52591,0 8.88943,2.48264 3.40363,2.48264 4.08436,6.32672 0.48042,2.88306 0.6007,14.29517 0.08,10.77143 0.48042,11.89262 0.40047,1.12119 2.00214,1.12119 h 3.1233 v 2.6428 q -4.56485,-0.28026 -6.36675,-0.28026 -2.24235,0 -6.00633,0.28026 l 0.041,-3.56378 q 0,-1.72182 -0.041,-3.4837 l -8.2888,6.32672 q -1.12124,0.84089 -2.20236,1.16123 -1.08113,0.36035 -3.00317,0.36035 -5.16549,0 -7.88839,-2.52268 -2.72291,-2.56272 -2.72291,-6.84726 0,-4.0443 1.92204,-7.04748 1.96209,-3.04323 5.52591,-4.48476 3.6038,-1.44153 16.65768,-3.764 -0.08,-5.0854 -2.24242,-7.60807 -2.7229,-3.16336 -7.76825,-3.16336 -1.92204,0 -3.6038,0.48049 -1.68176,0.48049 -3.12331,1.44153 -1.16122,2.84302 -2.12227,5.44578 z m 21.1024,6.36676 q -11.13184,2.40256 -14.13501,4.5248 -3.00323,2.08222 -3.00323,6.48689 0,2.96315 1.72187,4.76506 1.72181,1.76187 4.44471,1.76187 3.00317,0 5.72608,-1.68178 2.76295,-1.68179 5.24558,-5.00532 l -0.08,-8.88944 z m 28.67041,-9.57016 6.04638,-5.36569 q 1.08119,-0.96102 2.28246,-1.40149 2.64281,-0.88093 5.28563,-0.88093 4.28452,0 7.40783,1.76187 3.12331,1.72182 4.48476,4.5248 1.36145,2.76294 1.36145,8.68922 l -0.20023,12.61339 q 0,6.52693 0.56038,7.52799 0.76082,1.28136 2.96319,1.28136 h 2.88302 v 2.32246 q -4.28452,-0.28026 -7.40783,-0.28026 -3.04321,0 -6.52694,0.28026 0.76082,-7.80828 0.76082,-21.10239 0,-5.36569 -0.96105,-7.60807 -0.92094,-2.24238 -3.16336,-3.60383 -2.20229,-1.36145 -5.3256,-1.36145 -3.88413,0 -6.60703,1.96208 -2.68286,1.96209 -3.32354,4.3246 -0.40047,1.56166 -0.40047,8.16866 0,7.32778 0.12027,13.61446 0.041,1.882 0.56039,2.3625 1.00103,0.92098 3.28349,0.92098 h 2.84298 v 2.32246 q -6.76715,-0.28026 -10.77142,-0.28026 -4.24448,0 -9.65025,0.28026 v -2.32246 h 2.88303 q 2.96319,0 3.44368,-1.36144 0.52074,-1.40149 0.52074,-16.65768 0,-6.84727 -0.15991,-10.7314 -0.08,-1.28136 -0.64034,-1.76186 -0.56038,-0.4805 -3.16342,-0.4805 h -2.88303 v -2.28242 q 3.44368,-0.4004 6.16652,-1.08114 2.72291,-0.68073 6.12654,-2.08222 0.36015,-0.16018 0.68066,-0.16018 0.64034,0 0.64034,0.92098 l -0.041,1.52161 z m 45.20795,-25.54711 q 1.84195,0 3.16336,1.36145 1.3214,1.3214 1.3214,3.2034 0,1.882 -1.3214,3.2034 -1.32141,1.3214 -3.16336,1.3214 -1.88199,0 -3.2034,-1.3214 -1.3214,-1.3214 -1.3214,-3.2034 0,-1.882 1.3214,-3.2034 1.32141,-1.36145 3.2034,-1.36145 z m 3.2034,17.73883 0.96106,0.60063 q -0.28019,3.00319 -0.36015,6.60701 -0.28019,11.69241 -0.28019,17.25832 0,5.20552 0.36015,8.88944 0.15991,1.44152 0.76082,2.00212 0.6007,0.56058 2.88309,0.84089 l 2.72284,0.36042 v 2.32246 q -5.84621,-0.28026 -10.65128,-0.28026 -4.72504,0 -9.53011,0.28026 v -2.32246 l 3.44362,-0.36042 q 2.00213,-0.16019 2.44264,-0.72076 0.48043,-0.60063 0.60071,-3.88413 0.20023,-5.08539 0.20023,-14.01487 0,-6.20659 -0.20023,-9.57016 -0.08,-1.24131 -0.72078,-1.76187 -0.6007,-0.52054 -2.76295,-0.52054 h -3.00317 v -2.3625 q 4.88516,-0.72077 7.16762,-1.32141 2.32244,-0.60063 5.96629,-2.04217 z m 18.57972,19.5007 q 0.20024,7.88837 4.04432,11.9727 3.84408,4.08434 10.09069,4.08434 2.803,0 5.56595,-0.92098 2.76289,-0.92098 5.4858,-2.76293 l 0.68066,0.60063 -1.28136,3.36358 q -3.32355,1.92204 -6.84725,2.88306 -3.52378,0.96102 -7.24771,0.96102 -8.12861,0 -13.13398,-5.12544 -4.96525,-5.16548 -4.96525,-13.97484 0,-6.72714 2.803,-11.65236 1.84195,-3.24344 6.8072,-6.00638 4.96525,-2.76293 9.65024,-2.76293 7.08753,0 11.21194,4.16442 4.16438,4.16442 4.16438,11.65237 l -0.08,2.3625 q -2.64282,0.64068 -5.04535,0.8409 -4.28452,0.3203 -11.89259,0.3203 z m 0.12028,-3.00319 q 6.20657,0.28026 13.69456,0.28026 3.00317,0 5.80617,-0.28026 v -2.24238 q 0,-3.52374 -1.4015,-6.6871 -0.88096,-1.96208 -3.08326,-3.24344 -2.20237,-1.32141 -5.0854,-1.32141 -4.48476,0 -7.16762,3.28349 -2.68286,3.28349 -2.76295,10.21084 z m 35.35754,10.13075 v 2.60276 q 0,3.12332 0.56038,3.88412 1.04108,1.28136 4.04432,2.48264 3.04321,1.20128 6.24661,1.20128 4.12441,0 6.7271,-2.20234 2.60277,-2.24238 2.60277,-5.32566 0,-2.44258 -1.52157,-3.92416 -1.52164,-1.48157 -5.80617,-2.3625 -7.96849,-1.6017 -10.53121,-2.80298 -2.56272,-1.20128 -3.84408,-3.2034 -1.28136,-2.00212 -1.28136,-4.84514 0,-5.32566 3.84408,-8.64918 3.88413,-3.32353 10.97166,-3.32353 5.60593,0 11.17189,2.24238 -0.32052,2.72289 -0.52075,9.12969 h -2.36255 q -0.08,-3.52374 -0.76082,-4.64493 -0.92094,-1.48157 -3.36352,-2.68285 -2.44258,-1.20128 -5.20554,-1.20128 -3.64384,0 -5.84621,1.882 -2.16232,1.84196 -2.16232,4.64494 0,2.68284 1.72187,4.04428 1.72181,1.4015 9.53011,2.96315 5.76612,1.16123 7.60807,2.16229 1.84194,1.00107 2.96312,3.04324 1.12117,2.04216 1.12117,4.68497 0,5.40573 -4.64488,9.3299 -4.6049,3.92417 -12.33311,3.92417 -4.9252,0 -11.05174,-1.56166 -1.08113,-0.28026 -1.08113,-0.8409 l 0.12028,-0.56058 q 0.15991,-0.60064 0.28019,-2.12226 0.36015,-3.88412 0.36015,-6.04641 l -0.041,-1.92204 z m 61.14486,-44.36709 q 1.84201,0 3.16342,1.36145 1.32134,1.3214 1.32134,3.2034 0,1.882 -1.32134,3.2034 -1.32141,1.3214 -3.16342,1.3214 -1.88199,0 -3.2034,-1.3214 -1.32134,-1.3214 -1.32134,-3.2034 0,-1.882 1.32134,-3.2034 1.32141,-1.36145 3.2034,-1.36145 z m 3.2034,17.73883 0.96105,0.60063 q -0.28019,3.00319 -0.36014,6.60701 -0.28019,11.69241 -0.28019,17.25832 0,5.20552 0.36014,8.88944 0.15992,1.44152 0.76082,2.00212 0.6007,0.56058 2.8831,0.84089 l 2.72284,0.36042 v 2.32246 q -5.84615,-0.28026 -10.65128,-0.28026 -4.72504,0 -9.53011,0.28026 v -2.32246 l 3.44368,-0.36042 q 2.00207,-0.16019 2.44258,-0.72076 0.48043,-0.60063 0.6007,-3.88413 0.20024,-5.08539 0.20024,-14.01487 0,-6.20659 -0.20024,-9.57016 -0.08,-1.24131 -0.72077,-1.76187 -0.6007,-0.52054 -2.76296,-0.52054 h -3.00316 v -2.3625 q 4.88516,-0.72077 7.16762,-1.32141 2.32244,-0.60063 5.96628,-2.04217 z m 23.18462,7.80828 6.04645,-5.36569 q 1.08112,-0.96102 2.28239,-1.40149 2.64281,-0.88093 5.28563,-0.88093 4.28452,0 7.40783,1.76187 3.12337,1.72182 4.48476,4.5248 1.36145,2.76294 1.36145,8.68922 l -0.20023,12.61339 q 0,6.52693 0.56038,7.52799 0.76082,1.28136 2.96312,1.28136 h 2.88309 v 2.32246 q -4.28459,-0.28026 -7.4079,-0.28026 -3.04321,0 -6.52694,0.28026 0.76082,-7.80828 0.76082,-21.10239 0,-5.36569 -0.96098,-7.60807 -0.92101,-2.24238 -3.16336,-3.60383 -2.20236,-1.36145 -5.32567,-1.36145 -3.88413,0 -6.60703,1.96208 -2.68286,1.96209 -3.32354,4.3246 -0.40047,1.56166 -0.40047,8.16866 0,7.32778 0.12028,13.61446 0.041,1.882 0.56038,2.3625 1.00103,0.92098 3.28349,0.92098 h 2.84298 v 2.32246 q -6.76715,-0.28026 -10.77142,-0.28026 -4.24448,0 -9.65025,0.28026 v -2.32246 h 2.8831 q 2.96312,0 3.44361,-1.36144 0.52074,-1.40149 0.52074,-16.65768 0,-6.84727 -0.15991,-10.7314 -0.08,-1.28136 -0.64034,-1.76186 -0.56038,-0.4805 -3.16335,-0.4805 h -2.8831 v -2.28242 q 3.44369,-0.4004 6.16659,-1.08114 2.72284,-0.68073 6.12647,-2.08222 0.36015,-0.16018 0.68066,-0.16018 0.64034,0 0.64034,0.92098 l -0.041,1.52161 z m 65.66973,25.38695 1.0811,0.96102 -1.6417,2.56272 q -2.7229,1.48157 -5.606,2.20234 -2.883,0.76081 -5.8862,0.76081 -5.88624,0 -10.01064,-2.24238 -4.0843,-2.24238 -6.32671,-6.48689 -2.24235,-4.24451 -2.24235,-10.09071 0,-5.16548 1.72181,-8.96952 1.72181,-3.84408 4.80507,-6.00638 3.12337,-2.16229 7.76825,-4.2445 3.28347,-1.48157 7.32777,-1.48157 3.0833,0 5.2857,0.52054 2.2423,0.48049 4.805,1.76187 -1.001,5.28561 -1.0811,10.57122 h -2.5227 v -2.00213 q 0,-2.56272 -0.7608,-3.60382 -0.7208,-1.08115 -3.3636,-2.12225 -2.6428,-1.04111 -5.7661,-1.04111 -5.4057,0 -8.32884,3.32353 -2.92307,3.28348 -2.92307,9.85045 0,8.44897 4.32457,13.53437 3.88413,4.60488 10.01064,4.60488 2.4026,0 4.725,-0.60063 2.3224,-0.60063 4.6049,-1.76187 z m 14.2151,-2.88306 q 1.922,0 3.2834,1.36145 1.3615,1.36144 1.3615,3.32352 0,1.92204 -1.3615,3.32353 -1.3614,1.36145 -3.2834,1.36145 -1.9621,0 -3.3235,-1.36145 -1.3615,-1.40149 -1.3615,-3.32353 0,-1.96208 1.3615,-3.32352 1.3614,-1.36145 3.3235,-1.36145 z"
     id="text3"
     style="font-size:12px;font-family:'Book Antiqua';-inkscape-font-specification:'Book Antiqua, Normal';text-align:center;text-anchor:middle;fill:#ff0000;stroke-width:6.83392"
     aria-label="of nutritional companies inc." />
</svg>
