<svg xmlns="http://www.w3.org/2000/svg" width="168" height="48" viewBox="0 0 168 48">
    <g fill="none" fill-rule="evenodd">
        <g>
            <path fill="#5B7E90" d="M2.661 10.528H.211V7.237h2.45V5.103c0-3.395 1.925-4.514 5.041-4.514.875 0 1.715.033 2.59.103v3.43c-.315-.033-.631-.033-.946-.033-1.365 0-1.854.418-1.854 1.504v1.644h2.8v3.291h-2.8v15.539H2.661V10.528M20.065 16.653c-.667.491-1.472.805-2.066.946-1.96.42-2.73 1.365-2.73 3.045 0 1.433.525 2.625 1.82 2.625 1.296 0 2.976-.842 2.976-2.907v-3.709zm-8.82-3.64v-.455c0-4.34 2.973-5.811 6.613-5.811 5.741 0 6.826 2.381 6.826 5.775v9.905c0 1.75.105 2.556.595 3.64H20.66c-.317-.593-.456-1.33-.595-1.959h-.07c-1.122 1.959-2.485 2.45-4.795 2.45-3.361 0-4.552-2.871-4.552-5.389 0-3.537 1.435-4.971 4.762-5.881l2.729-.736c1.436-.383 1.926-.944 1.926-2.203 0-1.436-.631-2.311-2.24-2.311-1.471 0-2.241.981-2.241 2.449v.526h-4.339zM37.176 14.028c0-1.82-.347-3.781-2.168-3.781-2.381 0-2.765 2.102-2.765 6.44 0 4.656.419 6.582 2.59 6.582 1.609 0 2.343-1.366 2.343-4.411h4.621c0 4.936-2.065 7.7-7.175 7.7-4.83 0-7.21-2.344-7.21-9.905 0-7.734 3.185-9.906 7.63-9.906s6.755 2.836 6.755 7.281h-4.621M45.368 1.849H50.2v5.388h2.799v3.291H50.2v10.186c0 1.469.314 2.064 1.714 2.064.383 0 .77-.037 1.085-.07v3.359c-1.049.106-2.031.211-3.15.211-3.78 0-4.481-1.156-4.481-4.97v-10.78h-2.45V7.237h2.45V1.849M61.468 23.269c1.96 0 2.591-1.926 2.591-6.616 0-4.689-.631-6.615-2.591-6.615-2.379 0-2.589 2.764-2.589 6.615 0 3.85.21 6.616 2.589 6.616zm0-16.522c5.811-.103 7.421 3.361 7.421 9.906 0 6.44-1.891 9.905-7.421 9.905-5.808.105-7.421-3.36-7.421-9.905 0-6.439 1.891-9.906 7.421-9.906zM71.478 7.237h4.619v2.52h.071c.98-1.82 2.346-3.01 4.34-3.01.281 0 .595.037.875.07v4.62c-.49-.034-1.015-.071-1.506-.071-1.679 0-3.57.875-3.57 3.397v11.304h-4.829V7.237M86.668 19.909v.629c0 1.645.875 2.731 2.519 2.731 1.471 0 2.452-.735 2.452-2.241 0-1.226-.805-1.787-1.75-2.134l-3.397-1.225c-2.658-.945-4.024-2.592-4.024-5.25 0-3.117 1.96-5.672 6.93-5.672 4.375 0 6.44 1.961 6.44 5.356v.769h-4.34c0-1.889-.56-2.834-2.135-2.834-1.224 0-2.275.699-2.275 2.029 0 .911.49 1.68 2.099 2.205l2.907.981c3.045 1.016 4.164 2.555 4.164 5.391 0 3.955-2.94 5.914-7 5.914-5.424 0-6.929-2.381-6.929-5.985v-.664h4.339" transform="translate(0 8)"/>
            <path fill="#BBD236" d="M104.516 24.317c2.484 0 3.955-1.82 3.955-7.769 0-5.916-1.471-7.736-3.955-7.736-2.485 0-3.956 1.82-3.956 7.736 0 5.949 1.471 7.769 3.956 7.769zm4.164-16.834h1.89v17.254c0 5.145-1.89 7.77-6.088 7.77-3.607 0-5.496-1.891-5.531-4.549h2.1c0 1.75 1.644 2.799 3.5 2.799 2.556 0 3.92-1.783 3.92-5.074v-2.942h-.071c-.664 2.278-2.414 3.326-4.34 3.326-2.869 0-5.74-1.89-5.74-9.31 0-6.404 1.856-9.695 5.951-9.695 2.03 0 3.674 1.191 4.34 3.291h.069v-2.87zM114.768 7.483h2.101v2.905h.068c.807-2.065 2.52-3.326 4.69-3.326.246 0 .492.037.736.107v2.1c-.351-.071-.701-.106-1.015-.106-2.311 0-4.479 1.68-4.479 5.285v11.619h-2.101V7.483M129.924 24.737c2.344 0 4.164-2.029 4.164-7.98 0-5.914-1.82-7.945-4.164-7.945-2.346 0-4.166 2.031-4.166 7.945 0 5.951 1.82 7.98 4.166 7.98zm0-17.675c4.094 0 6.404 3.255 6.404 9.695 0 6.476-2.31 9.73-6.404 9.73-4.096 0-6.406-3.254-6.406-9.73 0-6.44 2.31-9.695 6.406-9.695zM139.408 7.483h2.1v13.09c0 3.01 1.015 4.164 3.221 4.164 2.378 0 4.058-1.888 4.058-4.759V7.483h2.1v18.584h-1.889v-2.589h-.07c-1.051 2.066-2.869 3.009-4.76 3.009-2.836 0-4.76-1.468-4.76-4.968V7.483M160.967 8.812c-1.19 0-2.238.63-2.94 1.646-.908 1.295-1.189 3.115-1.189 6.336 0 6.859 1.924 7.943 4.058 7.943 2.102 0 4.061-1.084 4.061-7.943 0-6.756-1.959-7.982-3.99-7.982zm-6.229-1.329h1.889v2.661h.07c.666-1.717 2.205-3.082 4.586-3.082 4.129 0 5.914 3.291 5.914 9.732 0 6.404-1.855 9.693-5.949 9.693-2.31 0-3.885-1.259-4.34-3.218h-.07v8.959h-2.1V7.483z" transform="translate(0 8)"/>
        </g>
    </g>
</svg>
