<?xml version="1.0" encoding="UTF-8" standalone="no"?>
<svg
   width="600"
   height="160"
   viewBox="0 0 600 160"
   version="1.1"
   id="svg3"
   sodipodi:docname="FG-logo-warn-010.svg"
   inkscape:version="1.3.1 (91b66b0783, 2023-11-16)"
   inkscape:export-filename="FG-STG-001.png"
   inkscape:export-xdpi="96"
   inkscape:export-ydpi="96"
   xmlns:inkscape="http://www.inkscape.org/namespaces/inkscape"
   xmlns:sodipodi="http://sodipodi.sourceforge.net/DTD/sodipodi-0.dtd"
   xmlns="http://www.w3.org/2000/svg"
   xmlns:svg="http://www.w3.org/2000/svg">
  <defs
     id="defs3" />
  <sodipodi:namedview
     id="namedview3"
     pagecolor="#505050"
     bordercolor="#ffffff"
     borderopacity="1"
     inkscape:showpageshadow="0"
     inkscape:pageopacity="0"
     inkscape:pagecheckerboard="1"
     inkscape:deskcolor="#d1d1d1"
     inkscape:zoom="2.073573"
     inkscape:cx="299.96533"
     inkscape:cy="80.055056"
     inkscape:window-width="1939"
     inkscape:window-height="1368"
     inkscape:window-x="742"
     inkscape:window-y="0"
     inkscape:window-maximized="0"
     inkscape:current-layer="svg3" />
  <g
     id="g1"
     transform="matrix(0.53410067,0,0,0.53410067,1.0953957,0.41900013)">
    <path
       fill="#5b7e90"
       d="M 17.212863,67.517546 H 0.81479249 V 45.490586 H 17.212863 V 31.207532 c 0,-22.7230407 12.884199,-30.21260843 33.739867,-30.21260843 5.856454,0 11.478649,0.22087193 17.335103,0.68938823 V 24.64161 c -2.108323,-0.220871 -4.22334,-0.220871 -6.331663,-0.220871 -9.136068,0 -12.408989,2.797711 -12.408989,10.066407 v 11.00344 h 18.740652 v 22.02696 H 49.547181 V 171.52147 H 17.212863 V 67.517546 M 133.6994,108.51272 c -4.46429,3.28631 -9.85223,5.38793 -13.82792,6.33167 -13.11846,2.81109 -18.27214,9.13606 -18.27214,20.38045 0,9.5912 3.51387,17.56936 12.18143,17.56936 8.67424,0 19.91863,-5.63558 19.91863,-19.45681 z M 74.666348,84.149874 v -3.045356 c 0,-29.04801 19.898556,-38.893546 44.261402,-38.893546 38.42503,0 45.68703,15.936248 45.68703,38.652595 v 66.295053 c 0,11.71291 0.70278,17.10754 3.98239,24.36285 h -30.91538 c -2.12171,-3.969 -3.05205,-8.90181 -3.98239,-13.11176 h -0.46851 c -7.50965,13.11176 -16.63233,16.39807 -32.09337,16.39807 -22.495476,0 -30.466947,-19.21586 -30.466947,-36.06907 0,-23.67345 9.604584,-33.27134 31.872497,-39.362054 l 18.26544,-4.926116 c 9.61127,-2.563454 12.89089,-6.318278 12.89089,-14.744878 0,-9.611277 -4.22334,-15.467731 -14.99252,-15.467731 -9.84553,0 -14.99921,6.565921 -14.99921,16.391378 v 3.520565 z m 173.558522,6.793487 c 0,-12.181425 -2.32251,-25.306574 -14.51062,-25.306574 -15.93625,0 -18.5064,14.068875 -18.5064,43.103493 0,31.16303 2.8044,44.05392 17.33511,44.05392 10.76917,0 15.68191,-9.14275 15.68191,-29.52322 h 30.92876 c 0,33.0371 -13.82123,51.5368 -48.02291,51.5368 -32.32764,0 -48.25719,-15.6886 -48.25719,-66.29506 0,-51.764357 21.3175,-66.301748 51.06828,-66.301748 29.75079,0 45.21182,18.981603 45.21182,48.732389 H 248.22487 M 303.05466,9.428217 h 32.34101 v 36.062369 h 18.73396 v 22.02696 h -18.73396 v 68.175814 c 0,9.83215 2.10163,13.81454 11.47195,13.81454 2.56346,0 5.15368,-0.24765 7.26201,-0.46852 v 22.48209 c -7.02106,0.70947 -13.59367,1.41224 -21.08323,1.41224 -25.29989,0 -29.99174,-7.73721 -29.99174,-33.26465 V 67.517546 h -16.39807 v -22.02696 h 16.39807 V 9.428217 M 410.8134,152.7942 c 13.11847,0 17.3418,-12.89089 17.3418,-44.28148 0,-31.383897 -4.22333,-44.274789 -17.3418,-44.274789 -15.92285,0 -17.3284,18.499701 -17.3284,44.274789 0,25.7684 1.40555,44.28148 17.3284,44.28148 z m 0,-110.583228 c 38.89355,-0.689389 49.66942,22.495475 49.66942,66.301748 0,43.1035 -12.65663,66.29506 -49.66942,66.29506 -38.87346,0.70277 -49.66942,-22.48878 -49.66942,-66.29506 0,-43.096805 12.65664,-66.301748 49.66942,-66.301748 z m 66.99784,3.279614 h 30.91538 v 16.866586 h 0.47521 c 6.55923,-12.181423 15.70199,-20.1462 29.04801,-20.1462 1.88076,0 3.98239,0.247644 5.85646,0.468517 v 30.922075 c -3.27962,-0.227565 -6.79349,-0.475209 -10.07979,-0.475209 -11.2377,0 -23.89434,5.856454 -23.89434,22.736427 V 171.52147 H 477.81124 V 45.490586 m 101.66804,84.814834 v 4.20996 c 0,11.01013 5.85645,18.27882 16.85989,18.27882 9.84554,0 16.41145,-4.91942 16.41145,-14.99921 0,-8.20573 -5.38793,-11.96055 -11.7129,-14.28306 l -22.73643,-8.19903 c -17.79023,-6.32497 -26.933,-17.348489 -26.933,-35.138722 0,-20.862361 13.11847,-37.963206 46.38312,-37.963206 29.28227,0 43.1035,13.125149 43.1035,35.84819 v 5.146986 H 611.8069 c 0,-12.643247 -3.74813,-18.968217 -14.28975,-18.968217 -8.19234,0 -15.22678,4.67847 -15.22678,13.58028 0,6.097405 3.27962,11.244391 14.0488,14.758263 l 19.45682,6.565921 c 20.38045,6.800175 27.87002,17.100845 27.87002,36.082445 0,26.47118 -19.67768,39.58294 -46.85163,39.58294 -36.30332,0 -46.37642,-15.93625 -46.37642,-40.05814 v -4.44422 h 29.04132"
       id="path1"
       style="fill:#ff0000;fill-rule:evenodd;stroke:#000000;stroke-width:1.98985;stroke-dasharray:none" />
    <path
       fill="#bbd236"
       d="m 698.93755,159.80856 c 16.62563,0 26.47117,-12.18142 26.47117,-51.99861 0,-39.596324 -9.84554,-51.777747 -26.47117,-51.777747 -16.63233,0 -26.47787,12.181423 -26.47787,51.777747 0,39.81719 9.84554,51.99861 26.47787,51.99861 z M 726.80758,47.137086 h 12.64993 V 162.61966 c 0,34.43595 -12.64993,52.00531 -40.74753,52.00531 -24.14197,0 -36.78522,-12.65664 -37.01948,-30.44687 h 14.05549 c 0,11.71291 11.00344,18.73397 23.42582,18.73397 17.10753,0 26.23691,-11.93378 26.23691,-33.96074 v -19.69108 h -0.47521 c -4.44422,15.24686 -16.15712,22.26122 -29.04802,22.26122 -19.20246,0 -38.41833,-12.64994 -38.41833,-62.31266 0,-42.862555 12.42238,-64.889515 39.83058,-64.889515 13.58697,0 24.59041,7.971471 29.04801,22.02696 h 0.46183 z m 40.74753,0 h 14.06218 v 19.443427 h 0.45513 c 5.40133,-13.821231 16.86658,-22.261218 31.39059,-22.261218 1.6465,0 3.29301,0.247645 4.92611,0.71616 v 14.05549 c -2.34927,-0.47521 -4.69186,-0.709468 -6.79348,-0.709468 -15.46774,0 -29.97835,11.244392 -29.97835,35.372981 V 171.52147 H 767.55511 V 47.137086 M 868.99558,162.61966 c 15.6886,0 27.87002,-13.58028 27.87002,-53.41085 0,-39.582941 -12.18142,-53.176607 -27.87002,-53.176607 -15.70199,0 -27.88341,13.593666 -27.88341,53.176607 0,39.83057 12.18142,53.41085 27.88341,53.41085 z m 0,-118.300365 c 27.40151,0 42.86255,21.786009 42.86255,64.889515 0,43.34444 -15.46104,65.12376 -42.86255,65.12376 -27.41489,0 -42.87594,-21.77932 -42.87594,-65.12376 0,-43.103506 15.46105,-64.889515 42.87594,-64.889515 z m 63.47727,2.817791 h 14.05548 v 87.612554 c 0,20.14619 6.79349,27.87002 21.55845,27.87002 15.91613,0 27.16053,-12.63655 27.16053,-31.85242 V 47.137086 h 14.05559 V 171.52147 h -12.6433 v -17.32841 h -0.46855 c -7.03438,13.82792 -19.20246,20.13951 -31.85909,20.13951 -18.98161,0 -31.85911,-9.82546 -31.85911,-33.25128 V 47.137086 m 144.29635,8.895117 c -7.9648,0 -14.9791,4.216647 -19.6778,11.016826 -6.0773,8.667552 -7.958,20.848975 -7.958,42.407421 0,45.9079 12.8775,53.16321 27.1606,53.16321 14.0689,0 27.1806,-7.25531 27.1806,-53.16321 0,-45.218519 -13.1117,-53.424247 -26.7054,-53.424247 z m -41.6913,-8.895117 h 12.6433 v 17.810312 h 0.4684 c 4.4577,-11.492035 14.7583,-20.628103 30.6946,-20.628103 27.6357,0 39.5829,22.02696 39.5829,65.137155 0,42.86255 -12.4156,64.87612 -39.8172,64.87612 -15.4611,0 -26.0026,-8.4266 -29.048,-21.53837 h -0.4685 v 59.9634 h -14.0555 z"
       id="path2"
       style="fill:#ff0000;fill-opacity:0.8;fill-rule:evenodd;stroke:#000000;stroke-width:1.98985;stroke-dasharray:none" />
    <path
       d="m 0.81479249,257.32368 q 0,-5.41199 2.50990871,-9.76511 2.5099088,-4.39234 7.0199008,-6.86304 4.54921,-2.47069 10.314157,-2.47069 8.353289,0 13.373107,4.94139 5.019817,4.94137 5.019817,13.17702 0,9.72589 -6.549292,15.45162 -5.843382,5.13747 -14.000586,5.13747 -7.843464,0 -12.784847,-5.25512 -4.90216551,-5.29434 -4.90216551,-14.35354 z m 7.37285701,-2.78444 q 0,8.07878 3.2942555,13.84372 3.333472,5.72573 9.569027,5.72573 4.745296,0 7.647378,-3.60799 2.941299,-3.608 2.941299,-10.94164 0,-5.92182 -1.725563,-10.23572 -1.725562,-4.35312 -4.549208,-6.31398 -2.823648,-2.00009 -6.31399,-2.00009 -3.098168,0 -5.608078,1.56869 -2.470691,1.5687 -3.6472105,4.19626 -1.60791,3.56878 -1.60791,7.76502 z m 48.1196565,-9.49058 v 15.25553 q 0,10.98085 0.627477,12.27502 0.666692,1.29418 3.960951,1.29418 h 3.451124 v 2.2746 q -6.431641,-0.31374 -9.216072,-0.31374 l -12.392674,0.31374 v -2.2746 h 2.627561 q 3.05895,0 3.607994,-1.21574 0.745129,-1.64713 0.745129,-12.35346 v -15.25553 l -5.647295,0.39215 v -1.64714 q 2.78443,-1.37261 5.647295,-2.90208 v -4.9806 q 0,-3.80408 1.01965,-6.19634 1.058868,-2.39225 4.196254,-5.64729 4.157037,-4.35312 6.470858,-5.68651 1.529476,-0.902 3.843298,-0.902 1.529476,0 3.41191,0.50981 -0.117665,2.00008 -0.117665,3.21582 0,1.21574 0.117665,3.33347 l -0.980436,0.43137 q -2.313821,-2.03929 -5.294338,-2.03929 -3.294255,0 -4.706079,2.23538 -1.372607,2.23539 -1.372607,10.90241 v 5.21591 q 6.353207,-0.0395 10.392592,-0.39214 l 0.274523,0.39214 -0.627477,3.76486 -4.82373,-0.11767 q -1.76478,0 -5.215905,0.11767 z m 46.550964,0.66669 5.92182,-5.25512 q 1.05886,-0.94121 2.23538,-1.37261 2.58834,-0.86277 5.17669,-0.86277 4.19626,0 7.25521,1.72556 3.05895,1.68634 4.39234,4.43155 1.33339,2.70601 1.33339,8.51016 l -0.19612,12.35346 q 0,6.39243 0.54904,7.37286 0.74513,1.25495 2.90208,1.25495 h 2.82364 v 2.2746 q -4.19625,-0.27448 -7.2552,-0.27448 -2.98051,0 -6.39242,0.27448 0.74513,-7.64737 0.74513,-20.66752 0,-5.25512 -0.94122,-7.45129 -0.902,-2.19617 -3.09817,-3.52956 -2.15695,-1.33339 -5.2159,-1.33339 -3.80408,0 -6.47086,1.92164 -2.62756,1.92166 -3.25504,4.23548 -0.39215,1.52948 -0.39215,8.00033 0,7.17677 0.11767,13.3339 0.0395,1.84321 0.54904,2.31381 0.98044,0.902 3.21582,0.902 h 2.78443 v 2.2746 q -6.62773,-0.27448 -10.549464,-0.27448 -4.157035,0 -9.451376,0.27448 v -2.2746 h 2.823647 q 2.902083,0 3.372695,-1.33338 0.509813,-1.37261 0.509813,-16.31441 0,-6.70616 -0.156887,-10.51025 -0.07844,-1.25496 -0.627477,-1.72555 -0.549034,-0.4706 -3.098171,-0.4706 h -2.823647 v -2.23539 q 3.372695,-0.39215 6.039469,-1.05886 2.666782,-0.6667 6.000248,-2.03931 0.35294,-0.15688 0.66671,-0.15688 0.62747,0 0.62747,0.902 l -0.0395,1.49026 z m 65.49294,30.43264 0.47058,-7.05911 -2.31382,2.50991 q -2.70599,2.94129 -5.52964,4.15703 -2.78442,1.17653 -6.90225,1.17653 -3.52955,0 -6.07869,-1.49026 -2.54912,-1.49027 -3.72564,-3.8433 -1.1373,-2.39226 -1.1373,-7.52972 0,-2.66679 0.11767,-6.19635 l 0.11766,-6.31398 q 0,-6.62773 -0.39215,-7.37286 -0.35292,-0.74513 -2.47069,-0.74513 h -3.49034 v -2.15696 q 5.33356,-0.47058 9.84354,-1.96086 l 3.25505,-1.21574 q 0.66669,0 0.66669,0.98043 l -0.27454,4.00018 q -0.54904,8.31407 -0.54904,15.45162 0,7.13755 0.58825,9.13763 0.58827,1.96087 2.4707,3.29427 1.88243,1.29416 4.58842,1.29416 3.64721,0 6.66695,-2.35303 3.05895,-2.35304 4.00017,-4.74531 0.50981,-1.3726 0.50981,-8.27485 0,-11.60832 -0.43138,-12.62797 -0.39214,-0.82357 -3.52955,-0.82357 h -3.09817 v -2.15696 q 4.03939,-0.47058 6.86303,-1.09807 2.82365,-0.62748 5.96104,-1.88243 0.39215,-0.19612 0.7059,-0.19612 0.66671,0 0.66671,0.74513 l -0.15689,3.64721 q -0.58826,13.41233 -0.58826,23.60883 0,5.72573 0.58826,6.54929 0.86278,1.21574 3.72565,1.21574 h 2.2746 v 2.2746 q -4.90217,-0.27448 -8.31407,-0.27448 -2.54913,0 -5.09825,0.27448 z m 30.04046,-30.82481 v 15.37319 q 0,6.00025 0.39215,7.6866 0.39215,1.68634 1.56869,2.62756 1.21574,0.94122 3.05895,0.94122 1.13731,0 2.19617,-0.43138 1.09809,-0.47059 2.15695,-1.37261 l 1.13731,1.37261 -3.80408,4.51 q -1.25496,0.43136 -2.43147,0.66669 -1.17653,0.23533 -2.27461,0.23533 -2.90208,0 -4.90217,-1.05886 -2.00008,-1.01966 -2.90207,-2.66679 -0.902,-1.68634 -0.902,-5.05903 l 0.11766,-7.56894 v -14.90259 q -3.01974,0 -6.23556,0.27456 v -1.68635 q 3.3727,-1.29418 6.23556,-2.70599 -0.0395,-5.60808 -0.31371,-12.15738 4.54921,-1.92165 6.5493,-3.09817 l 1.01965,0.78435 q -0.31371,3.05895 -0.6667,14.4712 4.78452,0 7.80425,-0.11767 l 3.13739,-0.15689 -0.43138,4.03939 -1.6079,-0.0395 -7.52973,0.0395 z m 26.55013,1.76479 q 1.56869,-1.49027 3.41191,-3.92174 2.19617,-2.86287 4.0786,-3.92173 1.88243,-1.05888 3.96096,-1.05888 2.15694,0 3.29424,0.50982 0.54904,0.23532 0.54904,0.74513 l -0.0395,0.39215 q -0.58825,3.17661 -0.6667,8.90233 h -1.76478 q -0.902,-2.00008 -2.15696,-2.82365 -1.21573,-0.82357 -2.9413,-0.82357 -2.31381,0 -4.3139,1.5687 -1.96087,1.56869 -2.62756,4.39234 -0.66669,2.82364 -0.66669,11.09851 0,5.4512 0.43136,9.17685 0.15689,1.3726 0.78436,1.72556 1.49025,0.82356 4.39234,0.82356 h 2.35303 v 2.2746 q -6.00025,-0.27448 -11.37302,-0.27448 -5.2159,0 -10.31416,0.27448 v -2.2746 l 3.76486,-0.3137 q 2.00009,-0.15688 2.50991,-0.74513 0.54904,-0.58825 0.70592,-3.80409 0.27455,-5.64729 0.27455,-13.41232 0,-9.45137 -0.74513,-11.0985 -0.50981,-1.05886 -3.21583,-1.05886 h -3.29424 v -2.27461 q 3.80408,-0.43137 6.78459,-1.09809 2.98052,-0.7059 5.29433,-1.76477 0.54904,-0.27456 0.90201,-0.27456 0.43137,0 0.58826,0.23533 0.15688,0.23533 0.15688,1.05887 z m 28.55021,-26.39327 q 1.804,0 3.09817,1.33339 1.29417,1.29417 1.29417,3.13739 0,1.84322 -1.29417,3.13739 -1.29417,1.29417 -3.09817,1.29417 -1.84322,0 -3.13739,-1.29417 -1.29417,-1.29417 -1.29417,-3.13739 0,-1.84322 1.29417,-3.13739 1.29417,-1.33339 3.13739,-1.33339 z m 3.13739,17.37328 0.94121,0.58825 q -0.27454,2.9413 -0.35292,6.47086 -0.27456,11.45146 -0.27456,16.90267 0,5.09824 0.35294,8.70625 0.15688,1.41181 0.74513,1.96086 0.58825,0.54903 2.82365,0.82356 l 2.66677,0.35299 v 2.2746 q -5.72573,-0.27448 -10.43181,-0.27448 -4.62764,0 -9.33372,0.27448 v -2.2746 l 3.37269,-0.35299 q 1.96087,-0.15689 2.39225,-0.70591 0.4706,-0.58825 0.58826,-3.80409 0.19611,-4.98059 0.19611,-13.72605 0,-6.07869 -0.19611,-9.37295 -0.0784,-1.21573 -0.70591,-1.72556 -0.58825,-0.50981 -2.70599,-0.50981 h -2.94131 v -2.31382 q 4.78452,-0.70591 7.01991,-1.29418 2.2746,-0.58825 5.84338,-2.00008 z m 23.05979,7.2552 v 15.37319 q 0,6.00025 0.39215,7.6866 0.39215,1.68634 1.56869,2.62756 1.21574,0.94122 3.05896,0.94122 1.13729,0 2.19617,-0.43138 1.09808,-0.47059 2.15695,-1.37261 l 1.1373,1.37261 -3.80408,4.51 q -1.25496,0.43136 -2.43148,0.66669 -1.17652,0.23533 -2.2746,0.23533 -2.90208,0 -4.90216,-1.05886 -2.00009,-1.01966 -2.90209,-2.66679 -0.902,-1.68634 -0.902,-5.05903 l 0.11766,-7.56894 v -14.90259 q -3.01973,0 -6.23556,0.27456 v -1.68635 q 3.3727,-1.29418 6.23556,-2.70599 -0.0395,-5.60808 -0.3137,-12.15738 4.5492,-1.92165 6.54929,-3.09817 l 1.01965,0.78435 q -0.31371,3.05895 -0.6667,14.4712 4.78451,0 7.80424,-0.11767 l 3.13739,-0.15689 -0.43137,4.03939 -1.6079,-0.0395 -7.52973,0.0395 z m 23.37352,-24.62848 q 1.804,0 3.09817,1.33339 1.29417,1.29417 1.29417,3.13739 0,1.84322 -1.29417,3.13739 -1.29417,1.29417 -3.09817,1.29417 -1.84322,0 -3.13739,-1.29417 -1.29417,-1.29417 -1.29417,-3.13739 0,-1.84322 1.29417,-3.13739 1.29417,-1.33339 3.13739,-1.33339 z m 3.13738,17.37328 0.94122,0.58825 q -0.27454,2.9413 -0.35293,6.47086 -0.27455,11.45146 -0.27455,16.90267 0,5.09824 0.35294,8.70625 0.15687,1.41181 0.74513,1.96086 0.58825,0.54903 2.82364,0.82356 l 2.66678,0.35299 v 2.2746 q -5.72573,-0.27448 -10.43181,-0.27448 -4.62764,0 -9.33372,0.27448 v -2.2746 l 3.37269,-0.35299 q 1.96087,-0.15689 2.39225,-0.70591 0.4706,-0.58825 0.58826,-3.80409 0.19611,-4.98059 0.19611,-13.72605 0,-6.07869 -0.19611,-9.37295 -0.0785,-1.21573 -0.70591,-1.72556 -0.58826,-0.50981 -2.706,-0.50981 h -2.9413 v -2.31382 q 4.78452,-0.70591 7.0199,-1.29418 2.2746,-0.58825 5.84338,-2.00008 z m 11.33381,19.2557 q 0,-5.41199 2.50991,-9.76511 2.50991,-4.39234 7.01991,-6.86304 4.5492,-2.47068 10.31415,-2.47068 8.35329,0 13.3731,4.94138 5.01982,4.94138 5.01982,13.17702 0,9.72589 -6.54929,15.45163 -5.84337,5.13747 -14.00058,5.13747 -7.84346,0 -12.78485,-5.25513 -4.90217,-5.29434 -4.90217,-14.35354 z m 7.37286,-2.78443 q 0,8.07877 3.29425,13.84372 3.33348,5.72573 9.56904,5.72573 4.74529,0 7.64737,-3.608 2.9413,-3.60799 2.9413,-10.94163 0,-5.92182 -1.72556,-10.23572 -1.72557,-4.35312 -4.54921,-6.31398 -2.82365,-2.0001 -6.31399,-2.0001 -3.09817,0 -5.60808,1.56869 -2.47068,1.5687 -3.64721,4.19627 -1.60791,3.56877 -1.60791,7.76502 z m 47.84513,-8.8239 5.92182,-5.25512 q 1.05887,-0.94121 2.23538,-1.37261 2.58835,-0.86277 5.1767,-0.86277 4.19625,0 7.2552,1.72556 3.05896,1.68634 4.39234,4.43155 1.33339,2.70601 1.33339,8.51016 l -0.19611,12.35346 q 0,6.39243 0.54904,7.37286 0.74513,1.25495 2.90208,1.25495 h 2.82365 v 2.2746 q -4.19625,-0.27448 -7.25521,-0.27448 -2.98051,0 -6.39241,0.27448 0.74512,-7.64737 0.74512,-20.66752 0,-5.25512 -0.94122,-7.45129 -0.902,-2.19617 -3.09817,-3.52956 -2.15694,-1.33339 -5.2159,-1.33339 -3.80408,0 -6.47086,1.92164 -2.62756,1.92166 -3.25504,4.23548 -0.39215,1.52948 -0.39215,8.00033 0,7.17677 0.11767,13.3339 0.0395,1.84321 0.54904,2.31381 0.98043,0.902 3.21581,0.902 h 2.78443 v 2.2746 q -6.62772,-0.27448 -10.54946,-0.27448 -4.15703,0 -9.45138,0.27448 v -2.2746 h 2.82365 q 2.90209,0 3.3727,-1.33338 0.50981,-1.37261 0.50981,-16.31441 0,-6.70616 -0.15689,-10.51025 -0.0785,-1.25496 -0.62748,-1.72555 -0.54903,-0.4706 -3.09817,-0.4706 h -2.82365 v -2.23539 q 3.37269,-0.39215 6.03948,-1.05886 2.66677,-0.6667 6.00025,-2.03931 0.35292,-0.15688 0.66669,-0.15688 0.62748,0 0.62748,0.902 l -0.0395,1.49026 z m 38.15846,3.13738 0.0395,-2.62755 -0.0395,-2.706 4.27469,-2.43147 q 2.90209,-1.64713 5.05904,-2.27461 2.19617,-0.62748 4.66686,-0.62748 5.41199,0 8.70624,2.43148 3.33348,2.43148 4.00017,6.19634 0.4706,2.82365 0.58826,14.00059 0.0785,10.54945 0.47059,11.64754 0.39215,1.09808 1.96087,1.09808 h 3.05895 v 2.58834 q -4.47078,-0.27448 -6.23556,-0.27448 -2.19617,0 -5.88259,0.27448 l 0.0395,-3.49034 q 0,-1.68633 -0.0395,-3.41191 l -8.11799,6.19635 q -1.09809,0.82357 -2.15696,1.13731 -1.05886,0.35292 -2.94129,0.35292 -5.05904,0 -7.72582,-2.47069 -2.66678,-2.50991 -2.66678,-6.70617 0,-3.96095 1.88243,-6.90225 1.92166,-2.98051 5.412,-4.39234 3.52955,-1.41181 16.31441,-3.68642 -0.0785,-4.9806 -2.19617,-7.45129 -2.66679,-3.09817 -7.60817,-3.09817 -1.88243,0 -3.52956,0.47059 -1.64713,0.47059 -3.05895,1.41182 -1.1373,2.78443 -2.07852,5.33356 z m 20.66754,6.23556 q -10.90242,2.35305 -13.84372,4.43156 -2.94131,2.03931 -2.94131,6.35321 0,2.90209 1.68636,4.66686 1.68634,1.72556 4.35311,1.72556 2.94131,0 5.60808,-1.64712 2.706,-1.64713 5.13748,-4.90217 l -0.0785,-8.70625 z m 29.49142,-37.17801 q -0.6667,11.49066 -0.6667,20.78518 v 20.1577 q 0,12.0005 0.50982,13.60841 0.27455,0.82356 2.58834,1.05887 l 3.33347,0.35299 v 2.2746 q -4.27468,-0.27448 -8.1572,-0.27448 -4.3139,0 -11.29459,0.27448 v -2.2746 l 3.37269,-0.27455 q 2.23539,-0.1961 2.54913,-1.1373 0.50981,-1.52948 0.50981,-13.92215 v -20.04007 l -0.0395,-7.52973 -0.11766,-5.13747 q 0,-1.92164 -0.43137,-2.35304 -0.62719,-0.62747 -2.62727,-0.62747 h -3.21583 v -2.35304 q 8.1572,-0.74513 13.02016,-3.05895 z m 59.61034,52.66886 1.05886,0.94121 -1.60791,2.50991 q -2.66678,1.45104 -5.49043,2.15696 -2.82364,0.74513 -5.76494,0.74513 -5.76494,0 -9.80433,-2.19617 -4.00017,-2.19617 -6.19634,-6.35321 -2.19617,-4.15704 -2.19617,-9.88277 0,-5.05903 1.68634,-8.78468 1.68635,-3.76486 4.70608,-5.8826 3.05895,-2.11773 7.60817,-4.15703 3.21581,-1.45104 7.17677,-1.45104 3.01972,0 5.17668,0.50981 2.19617,0.47059 4.70608,1.72556 -0.98043,5.17669 -1.05886,10.35338 h -2.4707 v -1.96087 q 0,-2.50991 -0.74513,-3.52956 -0.70591,-1.05887 -3.29425,-2.07851 -2.58834,-1.01966 -5.6473,-1.01966 -5.29434,0 -8.1572,3.25504 -2.86286,3.21582 -2.86286,9.64746 0,8.27485 4.23547,13.25546 3.80408,4.50998 9.80433,4.50998 2.35303,0 4.62764,-0.58825 2.27461,-0.58825 4.51,-1.72556 z m 6.70615,-13.25546 q 0,-5.41199 2.50991,-9.76511 2.50991,-4.39234 7.01991,-6.86304 4.5492,-2.47068 10.31415,-2.47068 8.35329,0 13.37311,4.94138 5.01982,4.94138 5.01982,13.17702 0,9.72589 -6.5493,15.45163 -5.84338,5.13747 -14.00058,5.13747 -7.84347,0 -12.78484,-5.25513 -4.90218,-5.29434 -4.90218,-14.35354 z m 7.37287,-2.78443 q 0,8.07877 3.29424,13.84372 3.33348,5.72573 9.56904,5.72573 4.7453,0 7.64737,-3.608 2.9413,-3.60799 2.9413,-10.94163 0,-5.92182 -1.72556,-10.23572 -1.72556,-4.35312 -4.54921,-6.31398 -2.82364,-2.0001 -6.31399,-2.0001 -3.09817,0 -5.60807,1.56869 -2.4707,1.5687 -3.64721,4.19627 -1.60791,3.56877 -1.60791,7.76502 z m 48.74713,-9.25528 5.25512,-4.70608 q 1.25496,-1.13731 2.66677,-1.60791 2.03931,-0.70592 4.03939,-0.70592 4.43155,0 7.09834,1.60792 2.70599,1.56869 4.94138,5.68651 l 5.05904,-4.62765 q 1.29417,-1.17652 3.1766,-1.804 2.4707,-0.86279 4.78451,-0.86279 3.52955,0 6.39243,1.64713 2.86286,1.64714 4.23547,4.27469 1.41182,2.62756 1.41182,7.13756 l -0.11766,15.33398 q 0,5.13746 0.58825,6.07867 0.58826,0.902 3.01974,1.01966 l 2.86286,0.11766 v 2.2746 l -1.88243,-0.11766 q -4.54921,-0.23533 -6.15712,-0.23533 -2.47069,0 -5.76494,0.35292 0.54903,-7.17676 0.54903,-16.78501 0,-8.11799 -0.70591,-10.66711 -0.70591,-2.54913 -2.706,-4.00017 -2.00008,-1.45103 -5.01981,-1.45103 -3.4119,0 -5.84338,1.8432 -2.43148,1.804 -3.01974,4.35313 -0.39215,1.60791 -0.39215,13.8045 0,7.17677 0.11766,8.19641 0.11767,0.98045 0.62748,1.41183 0.54904,0.39215 3.41191,0.70592 l 2.62756,0.3137 v 2.2746 q -6.94147,-0.35293 -10.1965,-0.35293 -2.58835,0 -10.03964,0.35293 v -2.2746 h 2.62756 q 2.35304,0 3.05895,-0.6667 0.70591,-0.6667 0.82356,-3.13738 0.31371,-6.43164 0.31371,-13.41232 0,-6.23556 -0.86278,-8.5886 -0.82357,-2.39225 -2.86287,-3.76486 -2.00007,-1.37261 -4.82372,-1.37261 -3.01974,0 -5.49044,1.68635 -2.47069,1.68634 -3.37268,4.0786 -0.58825,1.64713 -0.58825,9.33372 0,8.43172 0.15688,12.39268 0.0784,1.84321 0.58826,2.35303 0.50981,0.50981 3.37269,0.78436 l 2.70599,0.3137 v 2.2746 q -4.90216,-0.27449 -9.25528,-0.27449 -4.94139,0 -10.74555,0.27449 v -2.2746 h 2.98051 q 2.54913,0 3.05896,-1.33339 0.50981,-1.37261 0.50981,-14.74571 0,-9.80434 -0.11766,-11.56912 -0.11767,-1.76478 -0.6667,-2.23538 -0.54904,-0.4706 -3.33347,-0.4706 h -2.43148 v -2.15694 q 5.76495,-0.78435 9.92199,-2.15696 l 2.86286,-1.09808 q 0.70591,0 0.70591,0.94121 l -0.0784,1.41182 q -0.11767,2.15696 -0.0785,4.82374 z m 70.98335,0.86278 5.49043,-4.86296 q 2.07852,-1.84321 3.52956,-2.31381 2.31382,-0.74513 5.41198,-0.74513 6.98068,0 11.29458,4.3139 4.3139,4.31391 4.3139,11.13773 0,3.4119 -0.98041,6.74537 -0.9804,3.29426 -2.39224,5.41199 -1.41183,2.07852 -3.1766,3.49034 -0.58832,0.47059 -4.78456,3.09817 l -1.56866,1.1373 q -2.98052,2.07853 -4.82374,2.70601 -1.80399,0.66669 -4.15704,0.66669 -1.8432,0 -3.88251,-0.54903 -2.0393,-0.50981 -4.27469,-1.52948 v 5.52964 q 0,8.51016 0.23533,12.00051 0.11766,1.52947 0.98043,2.19617 0.86278,0.70591 3.64722,0.70591 h 2.11773 v 2.19617 q -7.41208,-0.23533 -10.8632,-0.23533 -3.80408,0 -9.68668,0.23533 v -2.19617 h 2.86286 q 3.01974,0 3.56878,-1.29417 0.54904,-1.29417 0.54904,-13.8045 v -24.07946 q 0,-6.27477 -0.31371,-9.68668 -0.15689,-1.64713 -0.78435,-2.15695 -0.58825,-0.54904 -2.82365,-0.54904 h -3.05894 v -2.43147 q 5.45121,-0.58825 10.70633,-2.23538 l 2.39225,-0.94122 q 0.62748,0 0.62748,1.09809 l -0.11767,4.15703 z m 0,21.56953 q 2.50991,2.82364 5.01982,4.00016 2.5099,1.17652 5.41199,1.17652 6.19635,0 9.49063,-4.66686 3.2942,-4.66687 3.2942,-11.0985 0,-4.31391 -1.52943,-7.37286 -1.49029,-3.09818 -4.39234,-4.82373 -2.90211,-1.76478 -6.23558,-1.76478 -2.35304,0 -4.62764,0.94121 -2.23539,0.94122 -3.92174,2.62756 -1.68634,1.64714 -2.15695,3.05895 -0.35292,1.05888 -0.35292,5.60808 z m 38.70753,-18.86355 0.0402,-2.62755 -0.0402,-2.706 4.27468,-2.43147 q 2.90205,-1.64713 5.05904,-2.27461 2.19614,-0.62748 4.66682,-0.62748 5.41204,0 8.70624,2.43148 3.33349,2.43148 4.0002,6.19634 0.47052,2.82365 0.58832,14.00059 0.0784,10.54945 0.47052,11.64754 0.39221,1.09808 1.96088,1.09808 h 3.05893 v 2.58834 q -4.47078,-0.27448 -6.23554,-0.27448 -2.19614,0 -5.88256,0.27448 l 0.0402,-3.49034 q 0,-1.68633 -0.0402,-3.41191 l -8.11799,6.19635 q -1.09813,0.82356 -2.15697,1.1373 -1.05885,0.35292 -2.94128,0.35292 -5.05905,0 -7.72583,-2.47069 -2.6668,-2.50991 -2.6668,-6.70616 0,-3.96096 1.88243,-6.90225 1.92166,-2.98052 5.41204,-4.39234 3.52953,-1.41182 16.3144,-3.68643 -0.0784,-4.9806 -2.19621,-7.45129 -2.66679,-3.09817 -7.60816,-3.09817 -1.88243,0 -3.52954,0.47059 -1.6471,0.47059 -3.05894,1.41182 -1.13729,2.78443 -2.07854,5.33356 z m 20.66753,6.23556 q -10.90244,2.35305 -13.84372,4.43156 -2.94134,2.03931 -2.94134,6.35321 0,2.90209 1.68638,4.66686 1.68633,1.72556 4.35312,1.72556 2.94128,0 5.60808,-1.64712 2.70601,-1.64713 5.13748,-4.90217 l -0.0784,-8.70625 z m 28.07959,-9.37294 5.92178,-5.25512 q 1.05891,-0.94121 2.23542,-1.37261 2.58835,-0.86277 5.17671,-0.86277 4.19622,0 7.25517,1.72556 3.05895,1.68634 4.39234,4.43155 1.33339,2.70601 1.33339,8.51016 l -0.1961,12.35346 q 0,6.39243 0.54883,7.37286 0.74514,1.25495 2.90213,1.25495 h 2.82361 v 2.2746 q -4.19623,-0.27448 -7.25518,-0.27448 -2.98049,0 -6.39243,0.27448 0.74514,-7.64737 0.74514,-20.66752 0,-5.25512 -0.94125,-7.45129 -0.90196,-2.19617 -3.09817,-3.52956 -2.1569,-1.33339 -5.21585,-1.33339 -3.80409,0 -6.47088,1.92164 -2.62757,1.92166 -3.25505,4.23548 -0.39221,1.52948 -0.39221,8.00033 0,7.17677 0.11779,13.3339 0.0402,1.84321 0.54884,2.31381 0.9804,0.902 3.21583,0.902 h 2.78439 v 2.2746 q -6.6277,-0.27448 -10.54945,-0.27448 -4.15701,0 -9.45138,0.27448 v -2.2746 h 2.82362 q 2.90212,0 3.37271,-1.33338 0.51001,-1.37261 0.51001,-16.31441 0,-6.70616 -0.15662,-10.51025 -0.0784,-1.25496 -0.62714,-1.72555 -0.54883,-0.4706 -3.09823,-0.4706 h -2.82362 v -2.23539 q 3.37272,-0.39215 6.03945,-1.05886 2.66679,-0.6667 6.00028,-2.03931 0.35273,-0.15688 0.66664,-0.15688 0.62714,0 0.62714,0.902 l -0.0402,1.49026 z m 44.27632,-25.02065 q 1.804,0 3.09818,1.33339 1.29416,1.29417 1.29416,3.13739 0,1.84322 -1.29416,3.13739 -1.29418,1.29417 -3.09818,1.29417 -1.8432,0 -3.13738,-1.29417 -1.29417,-1.29417 -1.29417,-3.13739 0,-1.84322 1.29417,-3.13739 1.29418,-1.33339 3.13738,-1.33339 z m 3.13739,17.37328 0.94125,0.58825 q -0.27441,2.9413 -0.35272,6.47086 -0.27442,11.45146 -0.27442,16.90267 0,5.09824 0.35273,8.70625 0.15661,1.41181 0.74514,1.96086 0.58832,0.54903 2.82368,0.82356 l 2.66673,0.35299 v 2.2746 q -5.72574,-0.27448 -10.43179,-0.27448 -4.62767,0 -9.33372,0.27448 v -2.2746 l 3.37266,-0.35299 q 1.96087,-0.15689 2.3923,-0.70591 0.47053,-0.58825 0.58833,-3.80409 0.19611,-4.98059 0.19611,-13.72605 0,-6.07869 -0.19611,-9.37295 -0.0784,-1.21573 -0.70592,-1.72556 -0.58832,-0.50981 -2.70602,-0.50981 h -2.94128 v -2.31382 q 4.78449,-0.70591 7.01992,-1.29418 2.27458,-0.58825 5.84334,-2.00008 z m 18.19684,19.09884 q 0.19611,7.72581 3.96098,11.72597 3.76486,4.00017 9.88274,4.00017 2.74524,0 5.45125,-0.902 2.70595,-0.902 5.37275,-2.70599 l 0.66664,0.58825 -1.25496,3.29427 q -3.25506,1.88243 -6.70614,2.82364 -3.45117,0.94122 -7.09836,0.94122 -7.9611,0 -12.86332,-5.01982 -4.86293,-5.05903 -4.86293,-13.68685 0,-6.58851 2.74524,-11.41224 1.80399,-3.1766 6.66692,-5.8826 4.86293,-2.70599 9.45137,-2.70599 6.94148,0 10.98089,4.0786 4.07857,4.0786 4.07857,11.41224 l -0.0784,2.31382 q -2.58835,0.62747 -4.94137,0.82357 -4.19623,0.3137 -11.64752,0.3137 z m 0.1178,-2.9413 q 6.07867,0.27448 13.41235,0.27448 2.94128,0 5.68652,-0.27448 v -2.19617 q 0,-3.45113 -1.37262,-6.5493 -0.86281,-1.92165 -3.01972,-3.1766 -2.15699,-1.29418 -4.9806,-1.29418 -4.39234,0 -7.01992,3.21583 -2.62757,3.21582 -2.70601,10.00042 z m 34.62891,9.92198 v 2.54912 q 0,3.05896 0.54883,3.80408 1.01963,1.25495 3.96098,2.43148 2.9805,1.17652 6.11788,1.17652 4.03942,0 6.58847,-2.15695 2.54914,-2.19617 2.54914,-5.21592 0,-2.39224 -1.49022,-3.84329 -1.49028,-1.45104 -5.68652,-2.31381 -7.80428,-1.5687 -10.31419,-2.74522 -2.5099,-1.17653 -3.76486,-3.13739 -1.25495,-1.96086 -1.25495,-4.74529 0,-5.21591 3.76486,-8.47094 3.80409,-3.25504 10.74556,-3.25504 5.49041,0 10.94167,2.19617 -0.31392,2.66678 -0.51002,8.94155 h -2.31387 q -0.0784,-3.45113 -0.74514,-4.54921 -0.90196,-1.45104 -3.2942,-2.62757 -2.39225,-1.17652 -5.09827,-1.17652 -3.56875,0 -5.72573,1.84322 -2.11776,1.804 -2.11776,4.54922 0,2.62755 1.68638,3.96093 1.68633,1.37262 9.33372,2.90209 5.6473,1.1373 7.45129,2.11773 1.80398,0.98044 2.90205,2.98053 1.09807,2.00007 1.09807,4.58842 0,5.29433 -4.54916,9.13764 -4.51001,3.8433 -12.07896,3.8433 -4.8237,0 -10.82399,-1.52948 -1.05885,-0.27448 -1.05885,-0.82357 l 0.1178,-0.54903 q 0.15662,-0.58826 0.27442,-2.07852 0.35273,-3.80408 0.35273,-5.92181 l -0.0402,-1.88243 z m 59.88482,-43.4528 q 1.80405,0 3.09823,1.33339 1.29411,1.29417 1.29411,3.13739 0,1.84322 -1.29411,3.13739 -1.29418,1.29417 -3.09823,1.29417 -1.84321,0 -3.13739,-1.29417 -1.29411,-1.29417 -1.29411,-3.13739 0,-1.84322 1.29411,-3.13739 1.29418,-1.33339 3.13739,-1.33339 z m 3.13738,17.37328 0.94125,0.58825 q -0.27442,2.9413 -0.35272,6.47086 -0.27442,11.45146 -0.27442,16.90267 0,5.09824 0.35272,8.70625 0.15663,1.41181 0.74514,1.96086 0.58832,0.54903 2.82369,0.82356 l 2.66673,0.35299 v 2.2746 q -5.72568,-0.27448 -10.43178,-0.27448 -4.62767,0 -9.33372,0.27448 v -2.2746 l 3.37271,-0.35299 q 1.96081,-0.15689 2.39225,-0.70591 0.47053,-0.58825 0.58832,-3.80409 0.19611,-4.98059 0.19611,-13.72605 0,-6.07869 -0.19611,-9.37295 -0.0784,-1.21573 -0.70592,-1.72556 -0.58832,-0.50981 -2.70602,-0.50981 h -2.94127 v -2.31382 q 4.78448,-0.70591 7.01991,-1.29418 2.27458,-0.58825 5.84333,-2.00008 z m 22.70685,7.64737 5.92184,-5.25512 q 1.05884,-0.94121 2.23536,-1.37261 2.58835,-0.86277 5.17671,-0.86277 4.19622,0 7.25517,1.72556 3.059,1.68634 4.39234,4.43155 1.33339,2.70601 1.33339,8.51016 l -0.1961,12.35346 q 0,6.39243 0.54883,7.37286 0.74514,1.25495 2.90206,1.25495 h 2.82368 v 2.2746 q -4.1963,-0.27448 -7.25525,-0.27448 -2.98049,0 -6.39243,0.27448 0.74514,-7.64737 0.74514,-20.66752 0,-5.25512 -0.94118,-7.45129 -0.90203,-2.19617 -3.09817,-3.52956 -2.15697,-1.33339 -5.21592,-1.33339 -3.80409,0 -6.47088,1.92164 -2.62757,1.92166 -3.25505,4.23548 -0.39221,1.52948 -0.39221,8.00033 0,7.17677 0.1178,13.3339 0.0402,1.84321 0.54883,2.31381 0.9804,0.902 3.21583,0.902 h 2.78439 v 2.2746 q -6.6277,-0.27448 -10.54945,-0.27448 -4.15701,0 -9.45138,0.27448 v -2.2746 h 2.82369 q 2.90205,0 3.37264,-1.33338 0.51001,-1.37261 0.51001,-16.31441 0,-6.70616 -0.15661,-10.51025 -0.0784,-1.25496 -0.62715,-1.72555 -0.54883,-0.4706 -3.09816,-0.4706 h -2.82369 v -2.23539 q 3.37273,-0.39215 6.03952,-1.05886 2.66672,-0.6667 6.00021,-2.03931 0.35273,-0.15688 0.66664,-0.15688 0.62714,0 0.62714,0.902 l -0.0402,1.49026 z m 64.31644,24.86379 1.05882,0.94121 -1.60787,2.50991 q -2.66679,1.45104 -5.49047,2.15696 -2.82359,0.74513 -5.7649,0.74513 -5.76494,0 -9.80435,-2.19617 -4.00013,-2.19617 -6.19633,-6.35321 -2.19614,-4.15704 -2.19614,-9.88277 0,-5.05903 1.68632,-8.78468 1.68633,-3.76486 4.70605,-5.8826 3.05901,-2.11773 7.60817,-4.15703 3.21581,-1.45104 7.17676,-1.45104 3.01976,0 5.17678,0.50981 2.19609,0.47059 4.70598,1.72556 -0.98037,5.17669 -1.05882,10.35338 h -2.47072 v -1.96087 q 0,-2.50991 -0.74512,-3.52956 -0.70594,-1.05887 -3.29428,-2.07851 -2.58834,-1.01966 -5.64728,-1.01966 -5.2943,0 -8.1572,3.25504 -2.86283,3.21582 -2.86283,9.64746 0,8.27485 4.23545,13.25546 3.80409,4.50998 9.80434,4.50998 2.35309,0 4.62763,-0.58825 2.27454,-0.58825 4.51001,-1.72556 z m 13.92215,-2.82365 q 1.8824,0 3.2157,1.33339 1.3335,1.33339 1.3335,3.25503 0,1.88244 -1.3335,3.25504 -1.3333,1.3334 -3.2157,1.3334 -1.9217,0 -3.255,-1.3334 -1.3334,-1.3726 -1.3334,-3.25504 0,-1.92164 1.3334,-3.25503 1.3333,-1.33339 3.255,-1.33339 z"
       id="text3"
       style="font-size:12px;font-family:'Book Antiqua';-inkscape-font-specification:'Book Antiqua, Normal';text-align:center;text-anchor:middle;fill:#ff0000;stroke:#000000;stroke-width:0.994926;stroke-dasharray:none"
       aria-label="of nutritional companies inc." />
  </g>
</svg>
