<?xml version="1.0" encoding="UTF-8" standalone="no"?>
<svg
   width="1125"
   height="300"
   viewBox="0 0 1142.8404 304.75745"
   version="1.1"
   id="svg3"
   sodipodi:docname="FG-logo-010.svg"
   inkscape:version="1.3 (0e150ed6c4, 2023-07-21)"
   inkscape:export-filename="..\..\..\Projects\OSS\public-assets\logos\FG-STG-001.png"
   inkscape:export-xdpi="96"
   inkscape:export-ydpi="96"
   xmlns:inkscape="http://www.inkscape.org/namespaces/inkscape"
   xmlns:sodipodi="http://sodipodi.sourceforge.net/DTD/sodipodi-0.dtd"
   xmlns="http://www.w3.org/2000/svg"
   xmlns:svg="http://www.w3.org/2000/svg">
  <defs
     id="defs3" />
  <sodipodi:namedview
     id="namedview3"
     pagecolor="#505050"
     bordercolor="#ffffff"
     borderopacity="1"
     inkscape:showpageshadow="0"
     inkscape:pageopacity="0"
     inkscape:pagecheckerboard="1"
     inkscape:deskcolor="#d1d1d1"
     inkscape:zoom="1.0459742"
     inkscape:cx="560.72129"
     inkscape:cy="149.14326"
     inkscape:window-width="1939"
     inkscape:window-height="1368"
     inkscape:window-x="742"
     inkscape:window-y="0"
     inkscape:window-maximized="0"
     inkscape:current-layer="svg3" />
  <g
     id="g4"
     transform="matrix(6.83392,0,0,6.83392,0.83572682,1.0158583)">
    <g
       fill="none"
       fill-rule="evenodd"
       id="g3"
       transform="translate(-0.211,-8.589)">
      <g
         id="g2">
        <path
           fill="#5b7e90"
           d="M 2.661,10.528 H 0.211 V 7.237 h 2.45 V 5.103 c 0,-3.395 1.925,-4.514 5.041,-4.514 0.875,0 1.715,0.033 2.59,0.103 v 3.43 C 9.977,4.089 9.661,4.089 9.346,4.089 7.981,4.089 7.492,4.507 7.492,5.593 v 1.644 h 2.8 v 3.291 h -2.8 V 26.067 H 2.661 V 10.528 m 17.404,6.125 c -0.667,0.491 -1.472,0.805 -2.066,0.946 -1.96,0.42 -2.73,1.365 -2.73,3.045 0,1.433 0.525,2.625 1.82,2.625 1.296,0 2.976,-0.842 2.976,-2.907 z m -8.82,-3.64 v -0.455 c 0,-4.34 2.973,-5.811 6.613,-5.811 5.741,0 6.826,2.381 6.826,5.775 v 9.905 c 0,1.75 0.105,2.556 0.595,3.64 H 20.66 c -0.317,-0.593 -0.456,-1.33 -0.595,-1.959 h -0.07 c -1.122,1.959 -2.485,2.45 -4.795,2.45 -3.361,0 -4.552,-2.871 -4.552,-5.389 0,-3.537 1.435,-4.971 4.762,-5.881 l 2.729,-0.736 c 1.436,-0.383 1.926,-0.944 1.926,-2.203 0,-1.436 -0.631,-2.311 -2.24,-2.311 -1.471,0 -2.241,0.981 -2.241,2.449 v 0.526 z m 25.931,1.015 c 0,-1.82 -0.347,-3.781 -2.168,-3.781 -2.381,0 -2.765,2.102 -2.765,6.44 0,4.656 0.419,6.582 2.59,6.582 1.609,0 2.343,-1.366 2.343,-4.411 h 4.621 c 0,4.936 -2.065,7.7 -7.175,7.7 -4.83,0 -7.21,-2.344 -7.21,-9.905 0,-7.734 3.185,-9.906 7.63,-9.906 4.445,0 6.755,2.836 6.755,7.281 H 37.176 M 45.368,1.849 H 50.2 v 5.388 h 2.799 v 3.291 H 50.2 v 10.186 c 0,1.469 0.314,2.064 1.714,2.064 0.383,0 0.77,-0.037 1.085,-0.07 v 3.359 c -1.049,0.106 -2.031,0.211 -3.15,0.211 -3.78,0 -4.481,-1.156 -4.481,-4.97 v -10.78 h -2.45 V 7.237 h 2.45 V 1.849 m 16.1,21.42 c 1.96,0 2.591,-1.926 2.591,-6.616 0,-4.689 -0.631,-6.615 -2.591,-6.615 -2.379,0 -2.589,2.764 -2.589,6.615 0,3.85 0.21,6.616 2.589,6.616 z m 0,-16.522 c 5.811,-0.103 7.421,3.361 7.421,9.906 0,6.44 -1.891,9.905 -7.421,9.905 -5.808,0.105 -7.421,-3.36 -7.421,-9.905 0,-6.439 1.891,-9.906 7.421,-9.906 z m 10.01,0.49 h 4.619 v 2.52 h 0.071 c 0.98,-1.82 2.346,-3.01 4.34,-3.01 0.281,0 0.595,0.037 0.875,0.07 v 4.62 c -0.49,-0.034 -1.015,-0.071 -1.506,-0.071 -1.679,0 -3.57,0.875 -3.57,3.397 V 26.067 H 71.478 V 7.237 m 15.19,12.672 v 0.629 c 0,1.645 0.875,2.731 2.519,2.731 1.471,0 2.452,-0.735 2.452,-2.241 0,-1.226 -0.805,-1.787 -1.75,-2.134 l -3.397,-1.225 c -2.658,-0.945 -4.024,-2.592 -4.024,-5.25 0,-3.117 1.96,-5.672 6.93,-5.672 4.375,0 6.44,1.961 6.44,5.356 v 0.769 h -4.34 c 0,-1.889 -0.56,-2.834 -2.135,-2.834 -1.224,0 -2.275,0.699 -2.275,2.029 0,0.911 0.49,1.68 2.099,2.205 l 2.907,0.981 c 3.045,1.016 4.164,2.555 4.164,5.391 0,3.955 -2.94,5.914 -7,5.914 -5.424,0 -6.929,-2.381 -6.929,-5.985 v -0.664 h 4.339"
           transform="translate(0,8)"
           id="path1" />
        <path
           fill="#bbd236"
           d="m 104.516,24.317 c 2.484,0 3.955,-1.82 3.955,-7.769 0,-5.916 -1.471,-7.736 -3.955,-7.736 -2.485,0 -3.956,1.82 -3.956,7.736 0,5.949 1.471,7.769 3.956,7.769 z M 108.68,7.483 h 1.89 v 17.254 c 0,5.145 -1.89,7.77 -6.088,7.77 -3.607,0 -5.496,-1.891 -5.531,-4.549 h 2.1 c 0,1.75 1.644,2.799 3.5,2.799 2.556,0 3.92,-1.783 3.92,-5.074 V 22.741 H 108.4 c -0.664,2.278 -2.414,3.326 -4.34,3.326 -2.869,0 -5.74,-1.89 -5.74,-9.31 0,-6.404 1.856,-9.695 5.951,-9.695 2.03,0 3.674,1.191 4.34,3.291 h 0.069 z m 6.088,0 h 2.101 v 2.905 h 0.068 c 0.807,-2.065 2.52,-3.326 4.69,-3.326 0.246,0 0.492,0.037 0.736,0.107 v 2.1 c -0.351,-0.071 -0.701,-0.106 -1.015,-0.106 -2.311,0 -4.479,1.68 -4.479,5.285 v 11.619 h -2.101 V 7.483 m 15.156,17.254 c 2.344,0 4.164,-2.029 4.164,-7.98 0,-5.914 -1.82,-7.945 -4.164,-7.945 -2.346,0 -4.166,2.031 -4.166,7.945 0,5.951 1.82,7.98 4.166,7.98 z m 0,-17.675 c 4.094,0 6.404,3.255 6.404,9.695 0,6.476 -2.31,9.73 -6.404,9.73 -4.096,0 -6.406,-3.254 -6.406,-9.73 0,-6.44 2.31,-9.695 6.406,-9.695 z m 9.484,0.421 h 2.1 v 13.09 c 0,3.01 1.015,4.164 3.221,4.164 2.378,0 4.058,-1.888 4.058,-4.759 V 7.483 h 2.1 v 18.584 h -1.889 v -2.589 h -0.07 c -1.051,2.066 -2.869,3.009 -4.76,3.009 -2.836,0 -4.76,-1.468 -4.76,-4.968 V 7.483 m 21.559,1.329 c -1.19,0 -2.238,0.63 -2.94,1.646 -0.908,1.295 -1.189,3.115 -1.189,6.336 0,6.859 1.924,7.943 4.058,7.943 2.102,0 4.061,-1.084 4.061,-7.943 0,-6.756 -1.959,-7.982 -3.99,-7.982 z m -6.229,-1.329 h 1.889 v 2.661 h 0.07 c 0.666,-1.717 2.205,-3.082 4.586,-3.082 4.129,0 5.914,3.291 5.914,9.732 0,6.404 -1.855,9.693 -5.949,9.693 -2.31,0 -3.885,-1.259 -4.34,-3.218 h -0.07 v 8.959 h -2.1 z"
           transform="translate(0,8)"
           id="path2" />
      </g>
    </g>
    <path
       d="m 0,38.29752 q 0,-0.808593 0.375,-1.458984 0.375,-0.65625 1.0488281,-1.025391 0.6796875,-0.36914 1.5410157,-0.36914 1.2480468,0 1.9980468,0.738281 0.75,0.738281 0.75,1.96875 0,1.453125 -0.9785156,2.308594 -0.8730469,0.767578 -2.0917969,0.767578 -1.171875,0 -1.91015623,-0.785156 Q 0,39.651036 0,38.29752 Z m 1.1015625,-0.416015 q 0,1.207031 0.4921875,2.068359 0.4980469,0.855469 1.4296875,0.855469 0.7089844,0 1.1425781,-0.539063 0.4394531,-0.539062 0.4394531,-1.634765 0,-0.884766 -0.2578125,-1.529297 Q 4.0898437,36.451817 3.6679688,36.158849 3.2460938,35.86002 2.7246094,35.86002 q -0.4628906,0 -0.8378907,0.234375 -0.3691406,0.234375 -0.5449218,0.626954 -0.2402344,0.533203 -0.2402344,1.160156 z m 7.1894531,-1.417969 v 2.279297 q 0,1.640625 0.09375,1.833984 0.099609,0.19336 0.5917969,0.19336 h 0.515625 V 41.11002 Q 8.53125,41.063145 8.1152344,41.063145 L 6.2636719,41.11002 V 40.770177 H 6.65625 q 0.4570312,0 0.5390625,-0.181641 0.1113281,-0.246094 0.1113281,-1.845703 v -2.279297 l -0.84375,0.05859 v -0.246094 q 0.4160156,-0.205078 0.84375,-0.433594 v -0.74414 q 0,-0.56836 0.1523438,-0.925782 0.1582031,-0.357421 0.6269531,-0.84375 0.6210938,-0.65039 0.9667969,-0.849609 0.2285156,-0.134766 0.5742187,-0.134766 0.2285157,0 0.5097659,0.07617 -0.01758,0.298828 -0.01758,0.480469 0,0.181641 0.01758,0.498047 l -0.1464846,0.06445 Q 9.6445313,33.15884 9.1992188,33.15884 q -0.4921875,0 -0.703125,0.333984 -0.2050782,0.333984 -0.2050782,1.628906 v 0.779297 q 0.9492188,-0.0059 1.5527344,-0.05859 l 0.041016,0.05859 -0.09375,0.5625 -0.7207031,-0.01758 q -0.2636719,0 -0.7792969,0.01758 z m 6.9550784,0.09961 0.884765,-0.785156 q 0.158203,-0.140625 0.333985,-0.205078 0.386718,-0.128906 0.773437,-0.128906 0.626953,0 1.083985,0.257812 0.457031,0.251953 0.65625,0.66211 0.199218,0.404297 0.199218,1.271484 l -0.0293,1.845703 q 0,0.955078 0.08203,1.101563 0.111328,0.1875 0.433593,0.1875 h 0.421875 v 0.339843 q -0.626953,-0.04101 -1.083984,-0.04101 -0.445312,0 -0.955078,0.04101 0.111328,-1.142578 0.111328,-3.08789 0,-0.785156 -0.140625,-1.113281 -0.134766,-0.328125 -0.462891,-0.527344 -0.322265,-0.199219 -0.779296,-0.199219 -0.56836,0 -0.966797,0.287109 -0.392578,0.28711 -0.486328,0.632813 -0.05859,0.228516 -0.05859,1.195312 0,1.072266 0.01758,1.992188 0.0059,0.275391 0.08203,0.345703 0.146485,0.134766 0.480469,0.134766 h 0.416016 v 0.339843 q -0.990235,-0.04101 -1.576172,-0.04101 -0.621094,0 -1.41211,0.04101 v -0.339843 h 0.421875 q 0.433594,0 0.503907,-0.199219 0.07617,-0.205078 0.07617,-2.4375 0,-1.001953 -0.02344,-1.570313 -0.01172,-0.1875 -0.09375,-0.257812 -0.08203,-0.07031 -0.462891,-0.07031 H 13.27148 V 35.90104 q 0.503907,-0.05859 0.902344,-0.158203 0.398438,-0.09961 0.896485,-0.304688 0.05273,-0.02344 0.09961,-0.02344 0.09375,0 0.09375,0.134766 l -0.0059,0.222656 z m 9.785156,4.546875 0.07031,-1.054687 -0.345703,0.375 q -0.404297,0.439453 -0.826172,0.621094 -0.416015,0.175781 -1.03125,0.175781 -0.527343,0 -0.908203,-0.222656 -0.380859,-0.222657 -0.55664,-0.574219 -0.169922,-0.357422 -0.169922,-1.125 0,-0.398438 0.01758,-0.925781 l 0.01758,-0.94336 q 0,-0.990234 -0.05859,-1.101562 -0.05273,-0.111328 -0.36914,-0.111328 h -0.521485 v -0.322266 q 0.796875,-0.07031 1.470703,-0.292969 l 0.486329,-0.18164 q 0.09961,0 0.09961,0.146484 l -0.04102,0.597656 q -0.08203,1.242188 -0.08203,2.308594 0,1.066406 0.08789,1.365234 0.08789,0.292969 0.36914,0.492188 0.28125,0.193359 0.685547,0.193359 0.544922,0 0.996094,-0.351562 0.457031,-0.351563 0.597656,-0.708985 0.07617,-0.205078 0.07617,-1.236328 0,-1.734375 -0.06445,-1.886718 -0.05859,-0.123047 -0.527344,-0.123047 h -0.46289 v -0.322266 q 0.603515,-0.07031 1.02539,-0.164062 0.421875,-0.09375 0.890625,-0.28125 0.05859,-0.0293 0.105469,-0.0293 0.09961,0 0.09961,0.111328 l -0.02344,0.544922 q -0.08789,2.003906 -0.08789,3.527343 0,0.855469 0.08789,0.978516 0.128906,0.181641 0.55664,0.181641 h 0.339844 v 0.339843 q -0.732422,-0.04101 -1.242187,-0.04101 -0.38086,0 -0.761719,0.04101 z m 4.488281,-4.605468 v 2.296875 q 0,0.896484 0.05859,1.148437 0.05859,0.251953 0.234375,0.392578 0.181641,0.140625 0.457031,0.140625 0.169922,0 0.328125,-0.06445 0.164063,-0.07031 0.322266,-0.205078 l 0.169922,0.205078 -0.56836,0.673828 q -0.1875,0.06445 -0.363281,0.09961 -0.175781,0.03516 -0.339844,0.03516 -0.433593,0 -0.732422,-0.158203 -0.298828,-0.152344 -0.433593,-0.398438 -0.134766,-0.251953 -0.134766,-0.755859 l 0.01758,-1.130859 v -2.226563 q -0.451172,0 -0.93164,0.04102 v -0.251953 q 0.503906,-0.19336 0.93164,-0.404297 -0.0059,-0.837891 -0.04687,-1.816407 0.679688,-0.287109 0.978516,-0.46289 l 0.152344,0.117187 q -0.04687,0.457032 -0.09961,2.16211 0.714844,0 1.166016,-0.01758 l 0.46875,-0.02344 -0.06445,0.603516 -0.240235,-0.0059 -1.125,0.0059 z m 3.966797,0.263672 q 0.234375,-0.222657 0.509766,-0.585938 0.328125,-0.427734 0.609375,-0.585937 0.28125,-0.158204 0.591797,-0.158204 0.322265,0 0.492187,0.07617 0.08203,0.03516 0.08203,0.111328 l -0.0059,0.05859 q -0.08789,0.47461 -0.09961,1.330078 h -0.263672 q -0.134766,-0.298828 -0.322266,-0.421875 -0.181641,-0.123047 -0.439453,-0.123047 -0.345703,0 -0.644531,0.234375 -0.292969,0.234375 -0.392578,0.65625 -0.09961,0.421875 -0.09961,1.658204 0,0.814453 0.06445,1.371093 0.02344,0.205078 0.117188,0.257813 0.222656,0.123047 0.65625,0.123047 h 0.351562 v 0.339843 q -0.896484,-0.04101 -1.699218,-0.04101 -0.779297,0 -1.541016,0.04101 v -0.339843 l 0.5625,-0.04687 q 0.298828,-0.02344 0.375,-0.111328 0.08203,-0.08789 0.105469,-0.56836 0.04102,-0.84375 0.04102,-2.003906 0,-1.412109 -0.111328,-1.658203 -0.07617,-0.158203 -0.480469,-0.158203 h -0.492187 v -0.339844 q 0.568359,-0.06445 1.013672,-0.164063 0.445312,-0.105468 0.791015,-0.263671 0.08203,-0.04102 0.134766,-0.04102 0.06445,0 0.08789,0.03516 0.02344,0.03516 0.02344,0.158203 z m 4.265625,-3.94336 q 0.269531,0 0.462891,0.199219 0.193359,0.193359 0.193359,0.46875 0,0.275391 -0.193359,0.46875 -0.19336,0.193359 -0.462891,0.193359 -0.275391,0 -0.46875,-0.193359 -0.193359,-0.193359 -0.193359,-0.46875 0,-0.275391 0.193359,-0.46875 0.193359,-0.199219 0.46875,-0.199219 z m 0.46875,2.595703 0.140625,0.08789 q -0.04102,0.439453 -0.05273,0.966797 -0.04102,1.710937 -0.04102,2.52539 0,0.761719 0.05273,1.300782 0.02344,0.210937 0.111329,0.292968 0.08789,0.08203 0.421875,0.123047 l 0.398437,0.05274 v 0.339843 q -0.855469,-0.04101 -1.558594,-0.04101 -0.691406,0 -1.394531,0.04101 v -0.339843 l 0.503906,-0.05274 q 0.292969,-0.02344 0.357422,-0.105468 0.07031,-0.08789 0.08789,-0.56836 0.0293,-0.74414 0.0293,-2.050781 0,-0.908203 -0.0293,-1.400391 -0.01172,-0.18164 -0.105469,-0.257812 -0.08789,-0.07617 -0.404297,-0.07617 h -0.439453 v -0.345703 q 0.714844,-0.105469 1.048828,-0.19336 0.339844,-0.08789 0.873047,-0.298828 z m 3.445313,1.083985 v 2.296875 q 0,0.896484 0.05859,1.148437 0.05859,0.251953 0.234375,0.392578 0.181641,0.140625 0.457032,0.140625 0.169921,0 0.328125,-0.06445 0.164062,-0.07031 0.322265,-0.205078 l 0.169922,0.205078 -0.568359,0.673828 q -0.1875,0.06445 -0.363282,0.09961 -0.175781,0.03516 -0.339843,0.03516 -0.433594,0 -0.732422,-0.158203 -0.298828,-0.152344 -0.433594,-0.398438 -0.134766,-0.251953 -0.134766,-0.755859 l 0.01758,-1.130859 v -2.226563 q -0.451172,0 -0.931641,0.04102 v -0.251953 q 0.503906,-0.19336 0.931641,-0.404297 -0.0059,-0.837891 -0.04687,-1.816407 0.679687,-0.287109 0.978515,-0.46289 l 0.152344,0.117187 q -0.04687,0.457032 -0.09961,2.16211 0.714843,0 1.166015,-0.01758 l 0.46875,-0.02344 -0.06445,0.603516 -0.240234,-0.0059 -1.125,0.0059 z m 3.492187,-3.679688 q 0.269531,0 0.462891,0.199219 0.193359,0.193359 0.193359,0.46875 0,0.275391 -0.193359,0.46875 -0.19336,0.193359 -0.462891,0.193359 -0.275391,0 -0.46875,-0.193359 -0.193359,-0.193359 -0.193359,-0.46875 0,-0.275391 0.193359,-0.46875 0.193359,-0.199219 0.46875,-0.199219 z m 0.46875,2.595703 0.140625,0.08789 q -0.04102,0.439453 -0.05273,0.966797 -0.04102,1.710937 -0.04102,2.52539 0,0.761719 0.05273,1.300782 0.02344,0.210937 0.111329,0.292968 0.08789,0.08203 0.421875,0.123047 l 0.398437,0.05274 v 0.339843 q -0.855469,-0.04101 -1.558594,-0.04101 -0.691406,0 -1.394531,0.04101 v -0.339843 l 0.503906,-0.05274 q 0.292969,-0.02344 0.357422,-0.105468 0.07031,-0.08789 0.08789,-0.56836 0.0293,-0.74414 0.0293,-2.050781 0,-0.908203 -0.0293,-1.400391 -0.01172,-0.18164 -0.105469,-0.257812 -0.08789,-0.07617 -0.404297,-0.07617 h -0.439453 v -0.345703 q 0.714844,-0.105469 1.048828,-0.19336 0.339844,-0.08789 0.873047,-0.298828 z m 1.693359,2.876953 q 0,-0.808593 0.375,-1.458984 0.375,-0.65625 1.048829,-1.025391 0.679687,-0.36914 1.541015,-0.36914 1.248047,0 1.998047,0.738281 0.75,0.738281 0.75,1.96875 0,1.453125 -0.978516,2.308594 -0.873046,0.767578 -2.091796,0.767578 -1.171875,0 -1.910157,-0.785156 -0.732422,-0.791016 -0.732422,-2.144532 z m 1.101563,-0.416015 q 0,1.207031 0.492187,2.068359 0.498047,0.855469 1.429688,0.855469 0.708984,0 1.142578,-0.539063 0.439453,-0.539062 0.439453,-1.634765 0,-0.884766 -0.257812,-1.529297 -0.257813,-0.650391 -0.679688,-0.943359 -0.421875,-0.298829 -0.943359,-0.298829 -0.462891,0 -0.837891,0.234375 -0.36914,0.234375 -0.544922,0.626954 -0.240234,0.533203 -0.240234,1.160156 z m 7.148437,-1.31836 0.884766,-0.785156 q 0.158203,-0.140625 0.333984,-0.205078 0.386719,-0.128906 0.773438,-0.128906 0.626953,0 1.083984,0.257812 0.457032,0.251953 0.65625,0.66211 0.199219,0.404297 0.199219,1.271484 l -0.0293,1.845703 q 0,0.955078 0.08203,1.101563 0.111329,0.1875 0.433594,0.1875 h 0.421875 v 0.339843 q -0.626953,-0.04101 -1.083984,-0.04101 -0.445313,0 -0.955078,0.04101 0.111328,-1.142578 0.111328,-3.08789 0,-0.785156 -0.140625,-1.113281 -0.134766,-0.328125 -0.462891,-0.527344 -0.322265,-0.199219 -0.779297,-0.199219 -0.568359,0 -0.966797,0.287109 -0.392578,0.28711 -0.486328,0.632813 -0.05859,0.228516 -0.05859,1.195312 0,1.072266 0.01758,1.992188 0.0059,0.275391 0.08203,0.345703 0.146484,0.134766 0.480469,0.134766 h 0.416015 v 0.339843 q -0.990234,-0.04101 -1.576172,-0.04101 -0.621093,0 -1.412109,0.04101 v -0.339843 h 0.421875 q 0.433594,0 0.503906,-0.199219 0.07617,-0.205078 0.07617,-2.4375 0,-1.001953 -0.02344,-1.570313 -0.01172,-0.1875 -0.09375,-0.257812 -0.08203,-0.07031 -0.462891,-0.07031 H 53.595698 V 35.90104 q 0.503906,-0.05859 0.902344,-0.158203 0.398437,-0.09961 0.896484,-0.304688 0.05273,-0.02344 0.09961,-0.02344 0.09375,0 0.09375,0.134766 l -0.0059,0.222656 z m 5.701172,0.46875 0.0059,-0.392578 -0.0059,-0.404297 0.638672,-0.363281 q 0.433594,-0.246094 0.75586,-0.339844 0.328125,-0.09375 0.697265,-0.09375 0.808594,0 1.300781,0.363282 0.498047,0.363281 0.597657,0.925781 0.07031,0.421875 0.08789,2.091797 0.01172,1.576172 0.07031,1.740234 0.05859,0.164063 0.292969,0.164063 h 0.457031 v 0.386718 q -0.667969,-0.04101 -0.931641,-0.04101 -0.328125,0 -0.878906,0.04101 l 0.0059,-0.521484 q 0,-0.251953 -0.0059,-0.509766 l -1.212891,0.925782 q -0.164062,0.123047 -0.322265,0.169922 -0.158203,0.05273 -0.439453,0.05273 -0.75586,0 -1.154297,-0.369141 -0.398438,-0.375 -0.398438,-1.001953 0,-0.591797 0.28125,-1.03125 0.28711,-0.445312 0.808594,-0.65625 0.527344,-0.210937 2.4375,-0.550781 -0.01172,-0.744141 -0.328125,-1.113281 -0.398438,-0.462891 -1.136719,-0.462891 -0.28125,0 -0.527344,0.07031 -0.246093,0.07031 -0.457031,0.210937 -0.169922,0.416016 -0.310547,0.796875 z m 3.087891,0.931641 q -1.628906,0.351563 -2.068359,0.662109 -0.439454,0.304688 -0.439454,0.949219 0,0.433594 0.251954,0.697266 0.251953,0.257812 0.65039,0.257812 0.439453,0 0.837891,-0.246093 0.404297,-0.246094 0.767578,-0.732422 l -0.01172,-1.300782 z m 4.40625,-5.554687 q -0.09961,1.716796 -0.09961,3.105468 v 3.011719 q 0,1.792969 0.07617,2.033203 0.04102,0.123047 0.386719,0.158203 l 0.498047,0.05274 v 0.339843 q -0.638672,-0.04101 -1.21875,-0.04101 -0.644531,0 -1.6875,0.04101 v -0.339843 l 0.503906,-0.04102 q 0.333985,-0.0293 0.38086,-0.169922 0.07617,-0.228515 0.07617,-2.080078 V 35.48502 l -0.0059,-1.125 -0.01758,-0.767578 q 0,-0.287109 -0.06445,-0.351562 Q 67.5,33.14713 67.201172,33.14713 h -0.480469 v -0.351563 q 1.21875,-0.111328 1.945313,-0.457031 z m 8.90625,7.86914 0.158203,0.140625 -0.240234,0.375 q -0.398438,0.216797 -0.820313,0.322266 -0.421875,0.111328 -0.861328,0.111328 -0.861328,0 -1.464844,-0.328125 -0.597656,-0.328125 -0.925781,-0.949219 -0.328125,-0.621094 -0.328125,-1.476562 0,-0.75586 0.251953,-1.3125 0.251953,-0.5625 0.703125,-0.878907 0.457031,-0.316406 1.136719,-0.621093 0.480469,-0.216797 1.072266,-0.216797 0.451171,0 0.773437,0.07617 0.328125,0.07031 0.703125,0.257812 -0.146484,0.773438 -0.158203,1.546875 h -0.369141 v -0.292969 q 0,-0.375 -0.111328,-0.527343 -0.105469,-0.158203 -0.492187,-0.310547 -0.386719,-0.152344 -0.84375,-0.152344 -0.791016,0 -1.21875,0.486328 -0.427735,0.480469 -0.427735,1.441406 0,1.236329 0.632813,1.980469 0.568359,0.673828 1.464844,0.673828 0.351562,0 0.691406,-0.08789 0.339844,-0.08789 0.673828,-0.257813 z m 1.001953,-1.980469 q 0,-0.808593 0.375,-1.458984 0.375,-0.65625 1.048828,-1.025391 0.679688,-0.36914 1.541016,-0.36914 1.248047,0 1.998047,0.738281 0.75,0.738281 0.75,1.96875 0,1.453125 -0.978516,2.308594 -0.873047,0.767578 -2.091797,0.767578 -1.171875,0 -1.910156,-0.785156 -0.732422,-0.791016 -0.732422,-2.144532 z m 1.101563,-0.416015 q 0,1.207031 0.492187,2.068359 0.498047,0.855469 1.429688,0.855469 0.708984,0 1.142578,-0.539063 0.439453,-0.539062 0.439453,-1.634765 0,-0.884766 -0.257813,-1.529297 -0.257812,-0.650391 -0.679687,-0.943359 -0.421875,-0.298829 -0.94336,-0.298829 -0.46289,0 -0.83789,0.234375 -0.369141,0.234375 -0.544922,0.626954 -0.240234,0.533203 -0.240234,1.160156 z m 7.283203,-1.382813 0.785156,-0.703125 q 0.1875,-0.169922 0.398437,-0.240234 0.304688,-0.105469 0.603516,-0.105469 0.662109,0 1.060547,0.240235 0.404297,0.234375 0.738281,0.849609 l 0.75586,-0.691406 Q 91.59375,35.67252 91.875,35.57877 q 0.369141,-0.128906 0.714844,-0.128906 0.527343,0 0.955078,0.246094 0.427734,0.246094 0.632812,0.638672 0.210938,0.392578 0.210938,1.066406 l -0.01758,2.291016 q 0,0.767578 0.08789,0.908203 0.08789,0.134765 0.451172,0.152344 l 0.427735,0.01758 v 0.339843 l -0.28125,-0.01758 q -0.679688,-0.03516 -0.919922,-0.03516 -0.369141,0 -0.861328,0.05273 0.08203,-1.072265 0.08203,-2.507812 0,-1.212891 -0.105469,-1.59375 -0.105469,-0.380859 -0.404297,-0.597656 -0.298828,-0.216797 -0.75,-0.216797 -0.509765,0 -0.873047,0.27539 -0.363281,0.269532 -0.451172,0.650391 -0.05859,0.240234 -0.05859,2.0625 0,1.072266 0.01758,1.224609 0.01758,0.146485 0.09375,0.210938 0.08203,0.05859 0.509765,0.105469 l 0.392579,0.04687 v 0.339843 q -1.03711,-0.05273 -1.523438,-0.05273 -0.386719,0 -1.5,0.05273 v -0.339843 h 0.392578 q 0.351563,0 0.457031,-0.09961 0.105469,-0.09961 0.123047,-0.46875 0.04687,-0.960937 0.04687,-2.003906 0,-0.931641 -0.128906,-1.283203 -0.123047,-0.357422 -0.427734,-0.5625 -0.298828,-0.205078 -0.720703,-0.205078 -0.451172,0 -0.820313,0.251953 -0.369141,0.251953 -0.503906,0.609375 -0.08789,0.246094 -0.08789,1.394531 0,1.259766 0.02344,1.851563 0.01172,0.27539 0.08789,0.351562 0.07617,0.07617 0.503907,0.117188 l 0.404296,0.04687 v 0.339843 q -0.732421,-0.04101 -1.382812,-0.04101 -0.738281,0 -1.605469,0.04101 v -0.339843 h 0.445313 q 0.380859,0 0.457031,-0.199219 0.07617,-0.205078 0.07617,-2.203125 0,-1.464844 -0.01758,-1.728516 -0.01758,-0.263672 -0.09961,-0.333984 -0.08203,-0.07031 -0.498047,-0.07031 H 85.066402 V 35.91274 q 0.861328,-0.117188 1.482422,-0.322266 l 0.427734,-0.164062 q 0.105469,0 0.105469,0.140625 l -0.01172,0.210937 q -0.01758,0.322266 -0.01172,0.720703 z m 10.605468,0.128907 0.820313,-0.726563 q 0.310547,-0.275391 0.527344,-0.345703 0.345703,-0.111328 0.808593,-0.111328 1.042968,0 1.687498,0.644531 0.64453,0.644531 0.64453,1.664063 0,0.509765 -0.14648,1.007812 -0.14648,0.492188 -0.35742,0.808594 -0.21094,0.310547 -0.47461,0.521484 -0.0879,0.07031 -0.71485,0.462891 l -0.23437,0.169922 q -0.445313,0.310547 -0.720704,0.404297 -0.269531,0.09961 -0.621094,0.09961 -0.27539,0 -0.580078,-0.08203 -0.304687,-0.07617 -0.638672,-0.228516 v 0.826172 q 0,1.271484 0.03516,1.792969 0.01758,0.228515 0.146484,0.328125 0.128906,0.105468 0.544922,0.105468 h 0.316406 v 0.328125 q -1.107422,-0.03516 -1.623047,-0.03516 -0.568359,0 -1.447265,0.03516 v -0.328125 h 0.427734 q 0.451172,0 0.533203,-0.193359 0.08203,-0.193359 0.08203,-2.0625 V 38.11588 q 0,-0.9375 -0.04687,-1.447266 -0.02344,-0.246094 -0.117187,-0.322265 -0.08789,-0.08203 -0.421875,-0.08203 h -0.457031 v -0.363281 q 0.814453,-0.08789 1.599609,-0.333984 l 0.357422,-0.140625 q 0.09375,0 0.09375,0.164062 l -0.01758,0.621094 z m 0,3.222656 q 0.375,0.421875 0.75,0.597656 0.375,0.175781 0.808594,0.175781 0.925784,0 1.417974,-0.697265 0.49218,-0.697266 0.49218,-1.658203 0,-0.644532 -0.22851,-1.101563 -0.22266,-0.462891 -0.65625,-0.720703 -0.433597,-0.263672 -0.931644,-0.263672 -0.351562,0 -0.691406,0.140625 -0.333984,0.140625 -0.585938,0.392578 -0.251953,0.246094 -0.322265,0.457031 -0.05273,0.158204 -0.05273,0.837891 z m 5.783208,-2.81836 0.006,-0.392578 -0.006,-0.404297 0.63867,-0.363281 q 0.43359,-0.246094 0.75586,-0.339844 0.32812,-0.09375 0.69726,-0.09375 0.8086,0 1.30078,0.363282 0.49805,0.363281 0.59766,0.925781 0.0703,0.421875 0.0879,2.091797 0.0117,1.576172 0.0703,1.740234 0.0586,0.164063 0.29297,0.164063 h 0.45703 v 0.386718 q -0.66797,-0.04101 -0.93164,-0.04101 -0.32812,0 -0.8789,0.04101 l 0.006,-0.521484 q 0,-0.251953 -0.006,-0.509766 l -1.21289,0.925782 Q 105.1582,41.127599 105,41.174474 q -0.1582,0.05273 -0.43945,0.05273 -0.75586,0 -1.1543,-0.369141 -0.39844,-0.375 -0.39844,-1.001953 0,-0.591797 0.28125,-1.03125 0.28711,-0.445312 0.8086,-0.65625 0.52734,-0.210937 2.4375,-0.550781 -0.0117,-0.744141 -0.32813,-1.113281 -0.39844,-0.462891 -1.13672,-0.462891 -0.28125,0 -0.52734,0.07031 -0.24609,0.07031 -0.45703,0.210937 -0.16992,0.416016 -0.31055,0.796875 z m 3.08789,0.931641 q -1.62891,0.351563 -2.06836,0.662109 -0.43946,0.304688 -0.43946,0.949219 0,0.433594 0.25196,0.697266 0.25195,0.257812 0.65039,0.257812 0.43945,0 0.83789,-0.246093 0.4043,-0.246094 0.76758,-0.732422 l -0.0117,-1.300782 z m 4.19531,-1.400391 0.88476,-0.785156 q 0.15821,-0.140625 0.33399,-0.205078 0.38672,-0.128906 0.77344,-0.128906 0.62695,0 1.08398,0.257812 0.45703,0.251953 0.65625,0.66211 0.19922,0.404297 0.19922,1.271484 l -0.0293,1.845703 q 0,0.955078 0.082,1.101563 0.11133,0.1875 0.4336,0.1875 h 0.42187 v 0.339843 q -0.62695,-0.04101 -1.08398,-0.04101 -0.44531,0 -0.95508,0.04101 0.11133,-1.142578 0.11133,-3.08789 0,-0.785156 -0.14063,-1.113281 -0.13476,-0.328125 -0.46289,-0.527344 -0.32226,-0.199219 -0.77929,-0.199219 -0.56836,0 -0.9668,0.287109 -0.39258,0.28711 -0.48633,0.632813 -0.0586,0.228516 -0.0586,1.195312 0,1.072266 0.0176,1.992188 0.006,0.275391 0.082,0.345703 0.14648,0.134766 0.48047,0.134766 h 0.41601 v 0.339843 q -0.99023,-0.04101 -1.57617,-0.04101 -0.62109,0 -1.41211,0.04101 v -0.339843 h 0.42187 q 0.4336,0 0.50391,-0.199219 0.0762,-0.205078 0.0762,-2.4375 0,-1.001953 -0.0234,-1.570313 -0.0117,-0.1875 -0.0937,-0.257812 -0.082,-0.07031 -0.4629,-0.07031 h -0.42187 V 35.90104 q 0.50391,-0.05859 0.90234,-0.158203 0.39844,-0.09961 0.89649,-0.304688 0.0527,-0.02344 0.0996,-0.02344 0.0937,0 0.0937,0.134766 l -0.006,0.222656 z m 6.61523,-3.738281 q 0.26953,0 0.46289,0.199219 0.19336,0.193359 0.19336,0.46875 0,0.275391 -0.19336,0.46875 -0.19336,0.193359 -0.46289,0.193359 -0.27539,0 -0.46875,-0.193359 -0.19336,-0.193359 -0.19336,-0.46875 0,-0.275391 0.19336,-0.46875 0.19336,-0.199219 0.46875,-0.199219 z m 0.46875,2.595703 0.14063,0.08789 q -0.041,0.439453 -0.0527,0.966797 -0.041,1.710937 -0.041,2.52539 0,0.761719 0.0527,1.300782 0.0234,0.210937 0.11133,0.292968 0.0879,0.08203 0.42188,0.123047 l 0.39843,0.05274 v 0.339843 q -0.85547,-0.04101 -1.55859,-0.04101 -0.69141,0 -1.39453,0.04101 v -0.339843 l 0.5039,-0.05274 q 0.29297,-0.02344 0.35743,-0.105468 0.0703,-0.08789 0.0879,-0.56836 0.0293,-0.74414 0.0293,-2.050781 0,-0.908203 -0.0293,-1.400391 -0.0117,-0.18164 -0.10547,-0.257812 -0.0879,-0.07617 -0.4043,-0.07617 h -0.43945 v -0.345703 q 0.71484,-0.105469 1.04883,-0.19336 0.33984,-0.08789 0.87304,-0.298828 z m 2.71875,2.853516 q 0.0293,1.154297 0.5918,1.751953 0.5625,0.597656 1.47656,0.597656 0.41016,0 0.81446,-0.134765 0.40429,-0.134766 0.80273,-0.404297 l 0.0996,0.08789 -0.1875,0.492188 q -0.48633,0.28125 -1.00195,0.421875 -0.51563,0.140625 -1.06055,0.140625 -1.18945,0 -1.92188,-0.75 -0.72656,-0.755859 -0.72656,-2.044922 0,-0.984375 0.41016,-1.705078 0.26953,-0.474609 0.99609,-0.878906 0.72656,-0.404297 1.41211,-0.404297 1.03711,0 1.64063,0.609375 0.60937,0.609375 0.60937,1.705078 l -0.0117,0.345703 q -0.38672,0.09375 -0.73828,0.123047 -0.62695,0.04687 -1.74023,0.04687 z m 0.0176,-0.439453 q 0.9082,0.04101 2.00391,0.04101 0.43945,0 0.84961,-0.04101 v -0.328125 q 0,-0.515625 -0.20508,-0.978516 -0.12891,-0.287109 -0.45117,-0.474609 -0.32227,-0.19336 -0.74414,-0.19336 -0.65625,0 -1.04883,0.480469 -0.39258,0.480469 -0.4043,1.494141 z m 5.17383,1.482422 v 0.380859 q 0,0.457031 0.082,0.568359 0.15234,0.1875 0.5918,0.363282 0.44531,0.175781 0.91406,0.175781 0.60352,0 0.98437,-0.322266 0.38086,-0.328125 0.38086,-0.779297 0,-0.357421 -0.22265,-0.574218 -0.22266,-0.216797 -0.84961,-0.345703 -1.16602,-0.234375 -1.54102,-0.410157 -0.375,-0.175781 -0.5625,-0.46875 -0.1875,-0.292968 -0.1875,-0.708984 0,-0.779297 0.5625,-1.265625 0.56836,-0.486328 1.60547,-0.486328 0.82031,0 1.63477,0.328125 -0.0469,0.398437 -0.0762,1.335937 h -0.34571 q -0.0117,-0.515625 -0.11133,-0.679687 -0.13476,-0.216797 -0.49218,-0.392578 -0.35742,-0.175782 -0.76172,-0.175782 -0.5332,0 -0.85547,0.275391 -0.31641,0.269531 -0.31641,0.679688 0,0.392578 0.25196,0.591796 0.25195,0.205079 1.39453,0.433594 0.84375,0.169922 1.11328,0.316406 0.26953,0.146485 0.43359,0.445313 0.16406,0.298828 0.16406,0.685547 0,0.791015 -0.67968,1.365234 -0.67383,0.574219 -1.80469,0.574219 -0.7207,0 -1.61719,-0.228516 -0.1582,-0.04101 -0.1582,-0.123047 l 0.0176,-0.08203 q 0.0234,-0.08789 0.041,-0.310547 0.0527,-0.568359 0.0527,-0.884765 l -0.006,-0.28125 z m 8.94726,-6.492188 q 0.26954,0 0.4629,0.199219 0.19335,0.193359 0.19335,0.46875 0,0.275391 -0.19335,0.46875 -0.19336,0.193359 -0.4629,0.193359 -0.27539,0 -0.46875,-0.193359 -0.19335,-0.193359 -0.19335,-0.46875 0,-0.275391 0.19335,-0.46875 0.19336,-0.199219 0.46875,-0.199219 z m 0.46875,2.595703 0.14063,0.08789 q -0.041,0.439453 -0.0527,0.966797 -0.041,1.710937 -0.041,2.52539 0,0.761719 0.0527,1.300782 0.0234,0.210937 0.11133,0.292968 0.0879,0.08203 0.42188,0.123047 l 0.39843,0.05274 v 0.339843 q -0.85546,-0.04101 -1.55859,-0.04101 -0.69141,0 -1.39453,0.04101 v -0.339843 l 0.50391,-0.05274 q 0.29296,-0.02344 0.35742,-0.105468 0.0703,-0.08789 0.0879,-0.56836 0.0293,-0.74414 0.0293,-2.050781 0,-0.908203 -0.0293,-1.400391 -0.0117,-0.18164 -0.10547,-0.257812 -0.0879,-0.07617 -0.4043,-0.07617 h -0.43945 v -0.345703 q 0.71484,-0.105469 1.04883,-0.19336 0.33984,-0.08789 0.87304,-0.298828 z m 3.39258,1.142578 0.88477,-0.785156 q 0.1582,-0.140625 0.33398,-0.205078 0.38672,-0.128906 0.77344,-0.128906 0.62695,0 1.08398,0.257812 0.45704,0.251953 0.65625,0.66211 0.19922,0.404297 0.19922,1.271484 l -0.0293,1.845703 q 0,0.955078 0.082,1.101563 0.11133,0.1875 0.43359,0.1875 h 0.42188 v 0.339843 q -0.62696,-0.04101 -1.08399,-0.04101 -0.44531,0 -0.95508,0.04101 0.11133,-1.142578 0.11133,-3.08789 0,-0.785156 -0.14062,-1.113281 -0.13477,-0.328125 -0.46289,-0.527344 -0.32227,-0.199219 -0.7793,-0.199219 -0.56836,0 -0.9668,0.287109 -0.39258,0.28711 -0.48633,0.632813 -0.0586,0.228516 -0.0586,1.195312 0,1.072266 0.0176,1.992188 0.006,0.275391 0.082,0.345703 0.14648,0.134766 0.48047,0.134766 h 0.41601 v 0.339843 q -0.99023,-0.04101 -1.57617,-0.04101 -0.62109,0 -1.41211,0.04101 v -0.339843 h 0.42188 q 0.43359,0 0.5039,-0.199219 0.0762,-0.205078 0.0762,-2.4375 0,-1.001953 -0.0234,-1.570313 -0.0117,-0.1875 -0.0937,-0.257812 -0.082,-0.07031 -0.46289,-0.07031 h -0.42188 V 35.90104 q 0.50391,-0.05859 0.90235,-0.158203 0.39843,-0.09961 0.89648,-0.304688 0.0527,-0.02344 0.0996,-0.02344 0.0937,0 0.0937,0.134766 l -0.006,0.222656 z m 9.60938,3.714844 0.1582,0.140625 -0.24023,0.375 q -0.39844,0.216797 -0.82032,0.322266 -0.42187,0.111328 -0.86132,0.111328 -0.86133,0 -1.46485,-0.328125 -0.59765,-0.328125 -0.92578,-0.949219 -0.32812,-0.621094 -0.32812,-1.476562 0,-0.75586 0.25195,-1.3125 0.25195,-0.5625 0.70312,-0.878907 0.45704,-0.316406 1.13672,-0.621093 0.48047,-0.216797 1.07227,-0.216797 0.45117,0 0.77344,0.07617 0.32812,0.07031 0.70312,0.257812 -0.14648,0.773438 -0.1582,1.546875 h -0.36914 v -0.292969 q 0,-0.375 -0.11133,-0.527343 -0.10547,-0.158203 -0.49219,-0.310547 -0.38672,-0.152344 -0.84375,-0.152344 -0.79101,0 -1.21875,0.486328 -0.42773,0.480469 -0.42773,1.441406 0,1.236329 0.63281,1.980469 0.56836,0.673828 1.46484,0.673828 0.35157,0 0.69141,-0.08789 0.33984,-0.08789 0.67383,-0.257813 z m 2.08008,-0.421875 q 0.28125,0 0.48046,0.199219 0.19922,0.199219 0.19922,0.486328 0,0.28125 -0.19922,0.486328 -0.19921,0.199219 -0.48046,0.199219 -0.28711,0 -0.48633,-0.199219 -0.19922,-0.205078 -0.19922,-0.486328 0,-0.287109 0.19922,-0.486328 0.19922,-0.199219 0.48633,-0.199219 z"
       id="text3"
       style="font-size:12px;font-family:'Book Antiqua';-inkscape-font-specification:'Book Antiqua, Normal';text-align:center;text-anchor:middle;fill:#5b7e90"
       aria-label="of nutritional companies inc." />
  </g>
</svg>
