<?xml version="1.0" encoding="UTF-8" standalone="no"?>
<svg
   width="300"
   height="300"
   viewBox="0 0 300 300"
   version="1.1"
   id="svg3"
   sodipodi:docname="FG-monogram-warn-010.svg"
   inkscape:version="1.3.1 (91b66b0783, 2023-11-16)"
   inkscape:export-filename="FG-STG-MG-001-md.png"
   inkscape:export-xdpi="96"
   inkscape:export-ydpi="96"
   xmlns:inkscape="http://www.inkscape.org/namespaces/inkscape"
   xmlns:sodipodi="http://sodipodi.sourceforge.net/DTD/sodipodi-0.dtd"
   xmlns="http://www.w3.org/2000/svg"
   xmlns:svg="http://www.w3.org/2000/svg">
  <defs
     id="defs3" />
  <sodipodi:namedview
     id="namedview3"
     pagecolor="#505050"
     bordercolor="#ffffff"
     borderopacity="1"
     inkscape:showpageshadow="0"
     inkscape:pageopacity="0"
     inkscape:pagecheckerboard="1"
     inkscape:deskcolor="#d1d1d1"
     inkscape:zoom="2.7809703"
     inkscape:cx="149.94767"
     inkscape:cy="149.94767"
     inkscape:window-width="1939"
     inkscape:window-height="1368"
     inkscape:window-x="742"
     inkscape:window-y="0"
     inkscape:window-maximized="0"
     inkscape:current-layer="svg3" />
  <g
     id="g1"
     transform="matrix(0.97782679,0,0,0.97782679,1.0000034,1.0000008)">
    <path
       style="fill:#ff0000;fill-opacity:1;fill-rule:evenodd;stroke:#000000;stroke-width:2.03172;stroke-linecap:square;stroke-dasharray:none"
       d="M 51.946576,95.282143 H 28.709594 V 64.068702 H 51.946576 V 43.828815 c 0,-32.199819 18.25763,-42.8129556 47.811293,-42.8129556 8.298921,0 16.265891,0.312988 24.564811,0.9769018 V 34.524538 c -2.98761,-0.312988 -5.98471,-0.312988 -8.97232,-0.312988 -12.94632,0 -17.584232,3.964514 -17.584232,14.264662 v 15.59249 H 124.32268 V 95.282143 H 97.766128 V 242.66151 H 51.946576 V 95.282143"
       id="path1" />
    <path
       id="path2"
       style="fill:#ff0000;fill-opacity:0.8;fill-rule:evenodd;stroke:#000000;stroke-width:2.03172;stroke-linecap:square;stroke-dasharray:none"
       d="m 218.62891,226.06366 c 23.55941,0 37.51105,-17.26176 37.51105,-73.68495 0,-56.11019 -13.95164,-73.371946 -37.51105,-73.371946 -23.56891,0 -37.52054,17.261756 -37.52054,73.371946 0,56.42319 13.95163,73.68495 37.52054,73.68495 z M 258.12222,66.401885 h 17.92563 V 230.04714 c 0,48.79767 -17.92563,73.69445 -57.74142,73.69445 -34.21045,0 -52.12664,-17.93516 -52.4586,-43.14492 h 19.91738 c 0,16.59785 15.59249,26.54707 33.19565,26.54707 24.24226,0 37.1791,-16.91083 37.1791,-48.12427 v -27.90335 h -0.6734 c -6.2977,21.60565 -22.8955,31.54539 -41.16258,31.54539 -27.21094,0 -54.44086,-17.92568 -54.44086,-88.30054 0,-60.738621 17.6032,-91.952052 56.44209,-91.952052 19.25346,0 34.84591,11.29602 41.16258,31.213431 h 0.65443 z" />
  </g>
</svg>
